<svg width="35" height="36" viewBox="0 0 35 36" fill="none" xmlns="http://www.w3.org/2000/svg">
<path d="M27.14 8.01167V8.87567H22.988V12.1877C22.988 12.5637 23.036 12.8197 23.132 12.9557C23.236 13.0917 23.436 13.1597 23.732 13.1597C23.972 13.1597 24.212 13.1077 24.452 13.0037C24.7 12.8997 24.92 12.7597 25.112 12.5837C25.312 12.4077 25.472 12.2077 25.592 11.9837C25.712 11.7517 25.772 11.5157 25.772 11.2757C25.772 11.0837 25.716 10.9357 25.604 10.8317C25.5 10.7277 25.328 10.6757 25.088 10.6757C24.872 10.6757 24.672 10.6997 24.488 10.7477L24.368 9.93167C24.504 9.89167 24.648 9.86367 24.8 9.84767C24.96 9.82367 25.12 9.81167 25.28 9.81167C25.704 9.81167 26.048 9.91967 26.312 10.1357C26.584 10.3437 26.72 10.6837 26.72 11.1557C26.72 11.5237 26.632 11.8797 26.456 12.2237C26.288 12.5597 26.06 12.8637 25.772 13.1357C25.484 13.3997 25.16 13.6077 24.8 13.7597C24.44 13.9117 24.072 13.9877 23.696 13.9877C23.4 13.9877 23.156 13.9557 22.964 13.8917C22.772 13.8197 22.612 13.7237 22.484 13.6037C22.404 13.5237 22.332 13.4357 22.268 13.3397C22.204 13.2357 22.152 13.0997 22.112 12.9317C22.08 12.7557 22.064 12.5237 22.064 12.2357V8.87567H20.9V8.01167H27.14ZM21.5 4.99967C21.732 4.99967 21.932 5.03167 22.1 5.09567C22.276 5.15967 22.424 5.25567 22.544 5.38367C22.688 5.53567 22.796 5.74367 22.868 6.00767C22.948 6.26367 22.988 6.62767 22.988 7.09967V8.10767H22.064V7.14767C22.064 6.86767 22.044 6.63567 22.004 6.45167C21.972 6.25967 21.896 6.11567 21.776 6.01967C21.656 5.91567 21.476 5.86367 21.236 5.86367C21.084 5.86367 20.932 5.88767 20.78 5.93567C20.636 5.97567 20.512 6.01567 20.408 6.05567L20.084 5.31167C20.324 5.20767 20.556 5.13167 20.78 5.08367C21.012 5.02767 21.252 4.99967 21.5 4.99967Z" fill="black"/>
<path fill-rule="evenodd" clip-rule="evenodd" d="M21.876 0.0945267C19.8996 0.440534 18.1928 1.33639 16.7882 2.76499C14.9669 4.61731 14.0188 6.95006 14.0161 9.58531C14.015 10.6931 14.1418 11.5472 14.4516 12.52C15.5072 15.8345 18.1286 18.2589 21.4659 19.0071C22.253 19.1836 23.8844 19.2235 24.7129 19.0865C25.9438 18.8829 27.0148 18.4945 28.0061 17.892C28.8107 17.4029 29.1718 17.1189 29.8322 16.4553C30.7311 15.5521 31.3839 14.5923 31.8663 13.4647C33.7899 8.9686 32.1431 3.78164 27.9942 1.26875C27.0691 0.708495 25.9014 0.289152 24.715 0.091222C23.978 -0.0317545 22.5881 -0.0301373 21.876 0.0945267ZM24.6547 1.32942C25.3001 1.42906 26.2098 1.72092 26.8237 2.02538C29.8885 3.54525 31.6947 6.76451 31.44 10.2533C31.103 14.872 27.051 18.3808 22.5895 17.9175C20.5408 17.7047 18.8543 16.8674 17.4597 15.3703C14.3651 12.0488 14.4652 6.73519 17.682 3.56958C19.5719 1.70975 22.0207 0.922948 24.6547 1.32942ZM0.181215 19.3683C-0.0358941 19.5917 -0.0544194 19.9132 0.135209 20.1673L0.266391 20.3431L2.29304 20.3783L4.31969 20.4134L4.48457 20.6107L4.64946 20.808V27.5853V34.3626L4.48457 34.5599L4.31969 34.7572L2.33761 34.7778L0.3556 34.7984L0.178344 34.9807C-0.0605034 35.2264 -0.0593413 35.5548 0.181215 35.8023L0.361479 35.9876L2.41999 35.9861C4.27362 35.9847 4.50624 35.9716 4.75644 35.8548C5.175 35.6592 5.50238 35.3276 5.68332 34.9159L5.84575 34.5462V27.5803V20.6145L5.63998 20.2005C5.41146 19.741 5.00493 19.3732 4.59648 19.2565C4.44807 19.2141 3.51168 19.1836 2.35163 19.1834L0.361479 19.183L0.181215 19.3683ZM7.20309 21.7402C6.9572 21.9578 6.94401 22.3361 7.17349 22.5873L7.33229 22.7612L9.90445 22.7826L12.4766 22.8041L13.0577 23.0928C13.3958 23.2607 14.2103 23.8101 15.0059 24.407C16.5665 25.5777 17.2257 26.006 17.8091 26.2284C18.1934 26.3749 18.3614 26.3869 20.5155 26.4224L22.8121 26.4603L23.3182 26.7243C23.5966 26.8694 23.8866 26.9881 23.9628 26.9879C24.164 26.9875 24.3811 26.8087 24.4588 26.5795C24.6083 26.1381 24.1717 25.6764 23.3059 25.3604C22.8927 25.2096 22.7345 25.1981 20.5772 25.1623L18.2872 25.1244L17.8428 24.8858C17.305 24.5971 16.8556 24.2876 15.6895 23.4027C14.4672 22.4752 13.6378 21.9483 13.0827 21.7469C12.6177 21.5782 12.5889 21.5765 10.0024 21.5751L7.39149 21.5736L7.20309 21.7402ZM32.1983 24.015C31.9827 24.0551 31.6524 24.215 27.6866 26.1996C25.9007 27.0933 24.2549 27.8746 24.0293 27.9359C22.5941 28.3258 18.9965 28.2273 15.4883 27.7021C15.0099 27.6305 14.5435 27.5866 14.4518 27.6046C14.0396 27.6857 13.8748 28.3045 14.1853 28.6046C14.333 28.7473 14.5324 28.7953 15.6721 28.9627C17.7483 29.2676 19.1578 29.3783 20.964 29.3783C22.8925 29.3783 23.8087 29.2964 24.5316 29.0597C24.8193 28.9655 26.6967 28.0652 28.7036 27.0591C31.8153 25.4991 32.3973 25.2298 32.658 25.2298C33.3285 25.2298 33.8044 25.715 33.7949 26.3889C33.7883 26.8618 33.6256 27.144 33.1895 27.4393C33.0015 27.5666 31.125 28.7733 29.0196 30.1208C25.0696 32.6489 24.7396 32.8312 23.5508 33.1415C22.0905 33.5228 19.6593 33.6575 18.4239 33.4255C16.7534 33.1119 14.4494 32.2388 12.0948 31.0271C10.6829 30.3005 9.62007 30.0298 8.06661 30.001C7.32996 29.9874 7.15114 30.0577 7.03985 30.4047C6.96124 30.6497 7.02782 30.9078 7.20979 31.0631C7.28075 31.1236 7.61126 31.1812 8.08855 31.216C9.75064 31.3375 10.3173 31.4911 11.6905 32.1925C14.89 33.827 17.4795 34.6788 19.5291 34.7712C21.7161 34.8698 24.4436 34.3719 25.7383 33.6379C26.7041 33.0903 33.9037 28.436 34.2161 28.1574C34.4225 27.9733 34.6403 27.6862 34.7626 27.4371C34.9444 27.067 34.9658 26.9554 34.9634 26.39C34.9613 25.8974 34.9284 25.6844 34.8147 25.4288C34.3599 24.4056 33.2693 23.8163 32.1983 24.015ZM1.54697 31.3532C1.16361 31.6634 1.06401 32.1282 1.29684 32.521C1.58463 33.0064 2.13841 33.1275 2.55957 32.7971C3.02346 32.4331 3.05019 31.8528 2.62219 31.4376C2.42101 31.2425 2.33276 31.2064 2.05618 31.2064C1.82731 31.2064 1.67371 31.2507 1.54697 31.3532Z" fill="black"/>
</svg>
