<svg width="37" height="38" viewBox="0 0 37 38" fill="none" xmlns="http://www.w3.org/2000/svg">
<path fill-rule="evenodd" clip-rule="evenodd" d="M7.41757 1.09356C7.14786 1.24593 7.06036 1.48922 6.96602 2.34838C6.86212 3.29474 6.92921 5.98948 7.08463 7.11144C8.03782 13.9924 11.2628 20.2315 15.5099 23.411C16.3154 24.014 18.0554 24.9611 18.3579 24.9611C18.5783 24.9611 19.7549 24.3878 20.4358 23.9487C24.7804 21.1469 28.2925 14.9797 29.4239 8.16594C29.6795 6.62694 29.7617 5.63701 29.761 4.10558C29.7605 2.62574 29.6616 1.5765 29.4996 1.32921C29.2577 0.959969 28.607 0.871649 28.22 1.15539C28.0947 1.24727 27.7975 1.4815 27.5596 1.67603C27.0829 2.06568 26.0716 2.61238 25.4941 2.79265C24.4088 3.13146 23.0964 3.18015 21.9993 2.92231C21.1084 2.71302 20.0008 2.15422 19.2884 1.55461C18.9777 1.29306 18.6512 1.05616 18.5631 1.02818C18.2709 0.935403 17.958 1.07152 17.4722 1.50273C15.7644 3.0188 13.2719 3.53506 11.0586 2.83132C10.3137 2.59449 9.35542 2.06049 8.72085 1.52871C8.09363 1.00302 7.76937 0.894805 7.41757 1.09356ZM18.7991 3.13465C19.654 3.77791 20.8647 4.29774 22.0244 4.51965C22.7549 4.65948 24.2473 4.65436 25.0109 4.50956C26.0094 4.32015 27.1387 3.8637 27.8984 3.34261L28.2244 3.11892L28.1819 4.70698C28.114 7.24066 27.7129 9.43197 26.8316 12.0841C25.1206 17.233 22.357 21.0956 19.028 22.9912L18.3816 23.3593L17.8558 23.0744C15.3551 21.7194 13.1148 19.1977 11.3888 15.795C9.56071 12.1912 8.46465 7.87612 8.46175 4.27161L8.46094 3.28732L8.742 3.46478C11.4224 5.15682 15.0788 5.08683 17.6641 3.29385C18.011 3.05324 18.3214 2.85351 18.3538 2.8501C18.3861 2.84668 18.5865 2.97471 18.7991 3.13465ZM4.24331 9.77768C3.76905 9.93228 3.37985 10.2321 3.0944 10.6627C2.25083 11.9355 0.560874 14.6971 0.380077 15.0983C0.0117296 15.9156 3.01114e-06 16.0777 3.01114e-06 20.3513C3.01114e-06 24.7824 -0.00578599 24.7221 0.490292 25.4709C0.642589 25.7008 1.30024 26.4232 1.95173 27.0763C3.30942 28.4372 3.75176 28.9868 4.16219 29.8221C4.4843 30.4779 4.75 31.4189 4.75 31.9044C4.75 32.1768 4.72558 32.2246 4.56579 32.2646C4.29178 32.3334 3.8544 32.7495 3.70092 33.0873C3.58499 33.3426 3.56577 33.5907 3.56577 34.8322C3.56577 36.4281 3.61705 36.6635 4.05413 37.0733C4.52289 37.5129 4.41654 37.504 9.22331 37.504H13.6271L14.0044 37.316C14.2401 37.1985 14.4614 37.013 14.5942 36.8214L14.8066 36.5148V34.8322V33.1495L14.5942 32.8429C14.3531 32.495 13.7625 32.1603 13.39 32.1603C13.1188 32.1603 13.1212 32.1661 12.9803 31.1954C12.8387 30.2198 12.8717 28.6537 13.0617 27.3361C13.2659 25.9201 13.24 25.2124 12.9584 24.5157C12.7021 23.8813 12.1089 23.1011 11.5475 22.6598C11.0397 22.2608 10.4392 21.5398 9.16802 19.8029C8.11359 18.3621 7.94645 18.1826 7.42321 17.9287C7.07305 17.7587 6.9186 17.7301 6.3575 17.7308L5.70126 17.7316L5.72969 16.7262L5.75804 15.7208L6.25018 14.4552C6.8429 12.9307 6.98963 12.3917 6.98963 11.7397C6.98963 11.1181 6.81217 10.6976 6.38875 10.3162C5.79797 9.78406 4.90868 9.56081 4.24331 9.77768ZM31.1521 9.74873C30.7251 9.85546 30.3463 10.0754 30.0482 10.3893C29.6566 10.8019 29.5193 11.1241 29.4839 11.713C29.4541 12.2092 29.4813 12.3152 30.0896 14.0764L30.7266 15.9201V16.8382V17.7563L30.247 17.7114C29.0731 17.6018 28.5854 17.9952 26.9065 20.4057C26.3964 21.1381 25.9697 21.6303 25.0806 22.5118C24.4425 23.1446 23.8348 23.8125 23.7302 23.9962C23.2835 24.7808 23.204 25.6618 23.4288 27.3383C23.5817 28.4793 23.5886 30.9247 23.4409 31.635L23.3418 32.1116L22.9158 32.1966C22.4147 32.2965 22.0134 32.5888 21.7884 33.0177C21.6536 33.2747 21.6316 33.4702 21.6092 34.6095C21.5769 36.2523 21.6423 36.5877 22.0809 37.0264C22.2777 37.2232 22.5168 37.3776 22.702 37.4274C22.9083 37.483 24.4053 37.502 27.4523 37.4877L31.9014 37.4669L32.2232 37.241C32.4001 37.1167 32.6284 36.8662 32.7305 36.6844C32.9116 36.3615 32.916 36.3174 32.916 34.8322C32.916 33.3982 32.9064 33.2928 32.7497 32.9995C32.5632 32.6506 32.2056 32.3467 31.8882 32.2675C31.6792 32.2154 31.6773 32.2099 31.7254 31.7979C31.8606 30.6391 32.3321 29.5525 33.1311 28.5576C33.392 28.2327 34.1481 27.4345 34.8114 26.7837C35.7209 25.8914 36.0593 25.5082 36.188 25.2251C36.4893 24.5624 36.5311 23.8392 36.4972 19.8619C36.4632 15.8658 36.4545 15.7729 36.0357 14.9466C35.9344 14.7466 35.4723 13.9873 35.0087 13.2593C34.5451 12.5313 33.9772 11.6146 33.7467 11.2221C33.3014 10.4642 32.9053 10.0439 32.4619 9.85865C32.1088 9.7111 31.5052 9.66049 31.1521 9.74873ZM20.6699 9.97985C20.5883 10.0242 19.8286 10.7491 18.982 11.5907L17.4424 13.1209L16.8296 12.5179C16.154 11.8532 15.9984 11.7501 15.6707 11.7501C15.392 11.7501 15.0185 12.0554 14.9575 12.333C14.8783 12.6936 15.0487 12.9496 16.0154 13.921C16.9666 14.8771 17.268 15.077 17.6072 14.9768C17.6997 14.9495 18.6521 14.0539 19.7236 12.9866C21.2322 11.484 21.6817 10.9935 21.7156 10.8133C21.8228 10.2415 21.1602 9.71333 20.6699 9.97985ZM5.27525 11.4475C5.39459 11.5669 5.49219 11.728 5.49219 11.8056C5.49219 11.8832 5.27747 12.5503 5.01511 13.288C4.14876 15.7238 4.21206 15.4137 4.13963 17.5763C4.02637 20.9569 4.01353 20.6339 4.28265 21.1778C4.41342 21.4421 4.85435 22.0925 5.26241 22.6232C5.67054 23.1538 6.29835 24.0036 6.6575 24.5114C7.54018 25.7594 7.6337 25.8517 8.01563 25.8517C8.25743 25.8517 8.37069 25.8049 8.54087 25.6347C9.00897 25.1666 8.81266 24.7256 7.20716 22.6391C6.16016 21.2782 5.6531 20.5465 5.59394 20.3106C5.45285 19.7485 5.92429 19.1977 6.4839 19.271C6.86316 19.3207 7.05093 19.5113 7.95551 20.7656C9.03205 22.2582 9.74552 23.1258 10.2624 23.5707C11.6175 24.7371 11.7367 25.1287 11.4661 27.5216C11.331 28.7159 11.3264 30.6464 11.4565 31.5118L11.5542 32.1621L8.94997 32.1427L6.3457 32.1232L6.29063 31.5708C6.21916 30.8536 5.99591 30.0505 5.67529 29.3564C5.19598 28.319 4.64112 27.5958 3.18584 26.1115C2.42547 25.3359 1.74711 24.5923 1.67853 24.459C1.56535 24.2394 1.5557 23.8427 1.5747 20.1915L1.59571 16.1661L1.82801 15.6758C1.95581 15.4061 2.44343 14.5879 2.9116 13.8575C3.37978 13.127 3.90599 12.286 4.08107 11.9884C4.55785 11.1778 4.86601 11.0383 5.27525 11.4475ZM31.8588 11.2979C31.972 11.3409 32.1924 11.6293 32.4687 12.0958C32.7067 12.4976 33.2867 13.4275 33.7577 14.1622C34.2287 14.897 34.6829 15.6652 34.767 15.8693C34.9149 16.2283 34.9199 16.3709 34.9199 20.2482C34.9199 24.9272 34.996 24.5039 33.9909 25.4183C33.146 26.187 31.8861 27.5711 31.4705 28.1871C30.7585 29.2426 30.3555 30.2866 30.1951 31.4916L30.1061 32.1603H27.5218C26.1004 32.1603 24.9375 32.149 24.9375 32.1353C24.9375 32.1215 24.9874 31.7792 25.0484 31.3745C25.2039 30.3429 25.1885 28.7765 25.0105 27.5238C24.6905 25.2703 24.7866 24.9205 26.0588 23.7091C27.0577 22.7578 27.5652 22.1542 28.6403 20.6386C29.1841 19.8722 29.5488 19.4292 29.7011 19.3505C30.2194 19.0825 30.8764 19.4581 30.8734 20.0208C30.8704 20.5674 30.603 20.9858 28.9601 23.0139C28.1144 24.0577 27.7418 24.6981 27.7306 25.1267C27.7242 25.3696 27.7647 25.4579 27.9641 25.6361C28.4316 26.0537 28.864 25.9049 29.3613 25.1552C29.712 24.6265 29.9381 24.3197 31.2566 22.5838C32.4107 21.0642 32.676 20.3307 32.3947 19.4364C32.2797 19.0708 32.269 18.8492 32.3125 17.7341C32.3421 16.9753 32.332 16.2366 32.2877 15.924C32.2445 15.6197 31.9608 14.6836 31.6181 13.7149C31.2911 12.7904 31.0234 11.9512 31.0234 11.85C31.0234 11.3885 31.4156 11.1294 31.8588 11.2979ZM13.2852 34.8322V35.9454H9.20313H5.1211V34.8322V33.7189H9.20313H13.2852V34.8322ZM31.3945 34.8322V35.9454H27.2754H23.1562V34.8322V33.7189H27.2754H31.3945V34.8322Z" fill="black"/>
</svg>
