<svg width="39" height="36" viewBox="0 0 39 36" fill="none" xmlns="http://www.w3.org/2000/svg">
<path d="M5.355 7.50566V8.15366H2.241V10.6377C2.241 10.9197 2.277 11.1117 2.349 11.2137C2.427 11.3157 2.577 11.3667 2.799 11.3667C2.979 11.3667 3.159 11.3277 3.339 11.2497C3.525 11.1717 3.69 11.0667 3.834 10.9347C3.984 10.8027 4.104 10.6527 4.194 10.4847C4.284 10.3107 4.329 10.1337 4.329 9.95366C4.329 9.80966 4.287 9.69866 4.203 9.62066C4.125 9.54266 3.996 9.50366 3.816 9.50366C3.654 9.50366 3.504 9.52166 3.366 9.55766L3.276 8.94566C3.378 8.91566 3.486 8.89466 3.6 8.88266C3.72 8.86466 3.84 8.85566 3.96 8.85566C4.278 8.85566 4.536 8.93666 4.734 9.09866C4.938 9.25466 5.04 9.50966 5.04 9.86366C5.04 10.1397 4.974 10.4067 4.842 10.6647C4.716 10.9167 4.545 11.1447 4.329 11.3487C4.113 11.5467 3.87 11.7027 3.6 11.8167C3.33 11.9307 3.054 11.9877 2.772 11.9877C2.55 11.9877 2.367 11.9637 2.223 11.9157C2.079 11.8617 1.959 11.7897 1.863 11.6997C1.803 11.6397 1.749 11.5737 1.701 11.5017C1.653 11.4237 1.614 11.3217 1.584 11.1957C1.56 11.0637 1.548 10.8897 1.548 10.6737V8.15366H0.675V7.50566H5.355ZM1.125 5.24666C1.299 5.24666 1.449 5.27066 1.575 5.31866C1.707 5.36666 1.818 5.43866 1.908 5.53466C2.016 5.64866 2.097 5.80466 2.151 6.00266C2.211 6.19466 2.241 6.46766 2.241 6.82166V7.57766H1.548V6.85766C1.548 6.64766 1.533 6.47366 1.503 6.33566C1.479 6.19166 1.422 6.08366 1.332 6.01166C1.242 5.93366 1.107 5.89466 0.927 5.89466C0.813 5.89466 0.699 5.91266 0.585 5.94866C0.477 5.97866 0.384 6.00866 0.306 6.03866L0.063 5.48066C0.243 5.40266 0.417 5.34566 0.585 5.30966C0.759 5.26766 0.939 5.24666 1.125 5.24666Z" fill="black"/>
<path fill-rule="evenodd" clip-rule="evenodd" d="M18.0262 1.02633C17.6259 1.1069 17.5039 1.65527 17.8235 1.938C17.9888 2.08432 18.0783 2.10267 18.6244 2.10267C19.4521 2.10267 19.7151 1.96064 19.7088 1.51683C19.7062 1.33331 19.5927 1.17011 19.3908 1.05944C19.2508 0.982802 18.3512 0.960935 18.0262 1.02633ZM15.4191 1.32164C14.7803 1.45889 14.5612 1.62047 14.5612 1.95438C14.5612 2.19091 14.68 2.37147 14.8896 2.45346C14.971 2.48531 15.3018 2.45458 15.6784 2.38012C16.2131 2.27451 16.3548 2.21861 16.4859 2.06196C16.6625 1.85074 16.6461 1.59586 16.4425 1.3864C16.265 1.20379 16.0351 1.18924 15.4191 1.32164ZM20.9042 1.36122C20.6906 1.58081 20.6847 1.88829 20.8902 2.08404C21.0282 2.21559 21.9592 2.45423 22.3341 2.45423C22.521 2.45423 22.7871 2.1329 22.7871 1.9072C22.7871 1.58883 22.5426 1.41192 21.9382 1.29295C21.2221 1.15204 21.0996 1.16013 20.9042 1.36122ZM23.8859 2.14732C23.7127 2.37372 23.7049 2.60238 23.8638 2.79349C24.0001 2.95746 24.9894 3.36745 25.2499 3.36794C25.6469 3.36872 25.8809 2.96983 25.6975 2.60498C25.6191 2.44917 25.4721 2.35685 25.0261 2.18374C24.3137 1.9072 24.0753 1.89961 23.8859 2.14732ZM12.3281 2.24421C11.5886 2.54283 11.4058 2.84524 11.7179 3.25333C11.9043 3.49718 12.1132 3.49155 12.7929 3.22465C13.406 2.98376 13.5814 2.82808 13.5814 2.52454C13.5814 2.00346 13.1586 1.90889 12.3281 2.24421ZM26.7954 3.37343C26.617 3.51771 26.5622 3.77716 26.6567 4.03029C26.7231 4.20832 27.8027 4.84486 28.0382 4.84486C28.2806 4.84486 28.5293 4.57134 28.5293 4.30486C28.5293 4.08077 28.3205 3.87623 27.7289 3.52087C27.175 3.18815 27.049 3.16826 26.7954 3.37343ZM10.0719 3.38208C9.83432 3.47229 9.2549 3.85015 9.02979 4.06172C8.70256 4.36926 8.83811 4.84092 9.28703 4.95686C9.46182 5.00193 9.95476 4.74368 10.5337 4.30345C10.7678 4.12549 10.8275 3.84825 10.6889 3.58197C10.5961 3.40352 10.2828 3.30199 10.0719 3.38208ZM17.1133 4.00856C14.9353 4.26147 12.4869 5.16921 10.6929 6.38899C7.18614 8.77315 4.85105 12.4667 4.15672 16.7277C4.00483 17.6599 3.95062 19.6828 4.05111 20.6704C4.58513 25.9205 7.66965 30.457 12.294 32.7936C14.3671 33.8411 16.3713 34.3118 18.7539 34.3107C21.0674 34.3097 22.9655 33.8927 24.9002 32.9604C25.2915 32.7718 25.6177 32.6255 25.6248 32.6354C25.632 32.6454 25.893 33.2319 26.2048 33.939C26.8137 35.3196 26.9508 35.5075 27.4501 35.6457C27.9016 35.7708 28.2438 35.6322 28.8065 35.0963C29.5764 34.3632 29.6343 34.2197 29.7039 32.8739C29.7361 32.2499 29.7696 31.7224 29.7782 31.7016C29.7914 31.6699 31.0963 30.4369 31.5832 29.9961L31.7319 29.8615L32.99 31.8243C33.7551 33.0178 34.3344 33.8501 34.4681 33.948C34.7677 34.1674 35.1591 34.2116 35.5262 34.0674C35.9497 33.9009 36.8972 32.8929 37.0003 32.4989C37.0669 32.2446 37.0155 31.8135 36.5969 29.1153C36.3331 27.4147 36.1172 25.9623 36.1172 25.8879C36.1172 25.8052 36.3446 25.5518 36.7026 25.2357C37.4438 24.5813 37.8141 24.1572 38.1973 23.5237C38.8365 22.4673 39.1501 20.9212 38.8891 20.1129C38.7257 19.6069 38.2453 19.109 37.7606 18.9435C36.7801 18.6085 35.1349 19.0728 33.8831 20.0378L33.5288 20.311L33.5285 19.1345C33.5281 17.4739 33.3885 16.4265 32.9642 14.9008C31.9473 11.2441 29.5149 8.01729 26.2763 6.02857C24.0123 4.63835 21.3955 3.91701 18.6992 3.93993C18.1089 3.94493 17.3953 3.97586 17.1133 4.00856ZM19.9502 5.05769C21.5716 5.21322 23.1731 5.65113 24.5794 6.32346C24.7884 6.42337 24.7698 6.53201 24.5433 6.53306C24.078 6.53517 23.2656 7.18675 22.9769 7.78954C22.7515 8.26015 22.7526 9.31385 22.9789 9.75232C23.2072 10.1944 23.5515 10.5568 23.9626 10.7875C24.2981 10.9757 24.3966 10.994 25.2822 11.0337C26.3143 11.08 26.5494 11.151 26.814 11.4972C27.2515 12.0692 27.0794 12.9175 26.4554 13.2648C26.2769 13.3643 25.9779 13.3916 24.7354 13.4216L23.2315 13.4581L22.8651 13.6668C22.447 13.905 22.1117 14.2771 21.8896 14.7494C21.6744 15.207 21.6678 16.0642 21.8758 16.5291C22.084 16.9942 22.5322 17.4655 22.9825 17.6931L23.3682 17.8878L27.8962 17.9078L32.4244 17.9278L32.4685 18.1087C32.5325 18.371 32.4518 20.5304 32.3525 21.2101C32.2822 21.691 32.2466 21.7902 32.144 21.7902C32.0759 21.7902 31.4288 21.6936 30.7059 21.5756C29.4066 21.3635 29.3896 21.3626 29.2168 21.4948C29.0901 21.5917 29.0364 21.7049 29.0216 21.9063C28.9901 22.338 29.114 22.4067 30.2768 22.603C30.8314 22.6966 31.2975 22.7859 31.3126 22.8015C31.3278 22.8171 30.8102 23.4297 30.1624 24.163L28.9846 25.4963L27.1334 24.2366C26.1153 23.5438 25.2439 22.9384 25.197 22.8911C25.1293 22.8228 25.2026 22.7126 25.553 22.3553L25.9943 21.9055L26.5269 21.9889C26.8199 22.0348 27.1148 22.0721 27.1823 22.0719C27.374 22.0711 27.6406 21.7526 27.6406 21.5244C27.6406 21.1736 27.4116 21.0342 26.6242 20.9059C25.9714 20.7996 25.8986 20.7997 25.6251 20.9071C25.2047 21.0723 24.181 22.1701 24.1162 22.5252C24.0515 22.8799 24.1175 23.2269 24.2996 23.49C24.3913 23.6225 25.2235 24.234 26.3623 25.0058L28.2713 26.2994L28.1398 26.453C27.7084 26.957 26.5119 28.2967 26.4811 28.3102C26.4609 28.3191 25.948 28.3536 25.3414 28.3867C24.0306 28.4584 23.8942 28.517 23.1719 29.3196C22.6838 29.8618 22.5437 30.1919 22.6212 30.6171C22.7073 31.0888 22.9096 31.2931 23.6705 31.6765L24.3829 32.0355L23.7388 32.2895C22.242 32.8798 20.8563 33.1688 19.2324 33.2295C16.8552 33.3183 14.7468 32.8371 12.5674 31.7081L11.542 31.1769L13.5244 31.1376C15.7337 31.0938 15.8491 31.0725 16.4581 30.596C17.9532 29.4265 17.6992 27.05 15.9929 26.2438C15.5912 26.054 15.5234 26.0451 14.2194 26.0101L12.8635 25.9738L12.6642 25.7441C12.5545 25.6178 12.4649 25.4343 12.4649 25.3364C12.4649 25.076 12.6336 24.7829 12.8389 24.6867C12.9704 24.625 13.9533 24.6027 16.5321 24.6027C18.8753 24.6027 20.1667 24.5763 20.4083 24.5236C21.2959 24.3297 22.083 23.6942 22.4663 22.8618C22.6724 22.4143 22.6846 22.3427 22.6846 21.5792C22.6846 20.8117 22.6734 20.7472 22.4652 20.3094C22.1983 19.7487 21.5804 19.1158 21.061 18.8712C20.5391 18.6254 19.9426 18.5588 18.2412 18.5565C16.8099 18.5545 16.7208 18.5465 16.3955 18.39C15.9147 18.1587 15.5068 17.6786 15.3652 17.1776C15.2224 16.6724 15.2624 16.0267 15.4613 15.6257C15.754 15.0353 16.4542 14.6183 17.1527 14.6183C17.59 14.6183 18.2699 14.3704 18.6502 14.0725C19.3421 13.5304 19.7224 12.7296 19.7183 11.8237C19.7133 10.7087 19.1467 9.79851 18.1412 9.29015L17.7627 9.09876L15.5316 9.07767L13.3005 9.05658L13.1561 9.24536C12.9769 9.47965 12.9724 9.70113 13.1423 9.91713L13.2729 10.0831L15.3811 10.1183C17.3757 10.1516 17.504 10.1616 17.7627 10.3052C18.5522 10.7434 18.8947 11.7104 18.5433 12.5089C18.2422 13.1932 17.7982 13.4778 16.8958 13.5648C15.7823 13.6722 14.9946 14.2058 14.5342 15.1645C14.279 15.6961 14.2764 15.71 14.2764 16.5524C14.2764 17.3944 14.2791 17.4089 14.5333 17.938C14.9514 18.8076 15.7409 19.4379 16.627 19.6095C16.8295 19.6487 17.7244 19.6808 18.6156 19.6808H20.236L20.658 19.8977C21.2701 20.2123 21.6129 20.7321 21.6753 21.4403C21.7408 22.1832 21.3949 22.8584 20.7484 23.2492L20.4287 23.4425L16.6006 23.4779C13.0641 23.5106 12.7503 23.5232 12.4814 23.644C12.1216 23.8055 11.6033 24.3858 11.5099 24.7314C11.2766 25.5955 11.6231 26.4676 12.3623 26.876C12.6082 27.0119 12.7735 27.0307 14.0029 27.063C15.3453 27.0981 15.376 27.1023 15.693 27.294C16.0468 27.5078 16.3175 27.9148 16.3901 28.3419C16.4879 28.917 16.1404 29.5975 15.6055 29.8781C15.3559 30.0091 15.1933 30.0167 12.6444 30.0167H9.94731L9.16925 29.2257C7.98089 28.0175 7.20829 26.9301 6.4806 25.4413C4.17101 20.7161 4.66703 14.9376 7.74621 10.6984L8.16751 10.1183H9.74784C11.2763 10.1183 11.3333 10.1133 11.4864 9.96543C11.6877 9.77074 11.6982 9.40005 11.5078 9.20423C11.3826 9.07542 11.2777 9.06333 10.2603 9.06044L9.14942 9.05728L9.55958 8.66402C12.2509 6.08355 16.2336 4.70121 19.9502 5.05769ZM29.3124 5.22841C29.0199 5.52921 29.0828 5.72847 29.6402 6.26665C29.9128 6.52976 30.2093 6.76502 30.2991 6.78942C30.68 6.89285 31.0575 6.53601 30.9656 6.15956C30.938 6.04636 30.7132 5.79084 30.3978 5.51402C29.8076 4.9961 29.5931 4.93964 29.3124 5.22841ZM7.12304 5.53793C6.73934 5.93259 6.6973 6.16111 6.95885 6.43005C7.17958 6.65716 7.39334 6.64795 7.73055 6.39672C8.24462 6.01366 8.36609 5.637 8.06839 5.34928C7.79529 5.0854 7.50709 5.14291 7.12304 5.53793ZM18.4394 6.62608C18.3028 6.74695 18.2556 6.85186 18.2604 7.02405C18.2708 7.401 18.4676 7.54261 19.0265 7.57509C19.6226 7.60968 19.9534 7.54858 20.1249 7.37217C20.3111 7.18064 20.2953 6.84574 20.09 6.63466C19.9354 6.47561 19.8711 6.46204 19.2735 6.46204C18.6925 6.46204 18.6055 6.47913 18.4394 6.62608ZM31.531 7.43735C31.2802 7.64625 31.3184 7.98543 31.6394 8.40183C32.1425 9.05418 32.3054 9.20423 32.5107 9.20423C32.7532 9.20423 33.041 8.92221 33.041 8.68441C33.041 8.49365 32.2957 7.42076 32.1132 7.34868C31.9144 7.27022 31.6908 7.30432 31.531 7.43735ZM26.9445 7.77801C29.5174 9.72982 31.3947 12.6784 32.1503 15.9542C32.2261 16.2829 32.2883 16.6072 32.2886 16.6749C32.2891 16.7908 32.0364 16.798 27.9372 16.798H23.5853L23.2976 16.6246C22.6084 16.2091 22.603 15.1822 23.2875 14.6599C23.4657 14.5239 23.5948 14.5102 24.9965 14.4777C26.4307 14.4444 26.5311 14.4332 26.8527 14.2704C27.2864 14.0509 27.7043 13.6211 27.9176 13.1751C28.0554 12.8872 28.085 12.7196 28.085 12.2277C28.085 11.5231 27.9251 11.1103 27.4715 10.6438C26.9777 10.1358 26.6526 10.0228 25.5557 9.97767C25.0209 9.95573 24.5349 9.90166 24.4542 9.85525C24.2036 9.71097 23.8894 9.28706 23.8425 9.02993C23.7463 8.50244 23.9893 7.95633 24.4267 7.71726C24.6276 7.60736 24.8233 7.58704 25.6788 7.58704C26.6745 7.58704 26.6973 7.59049 26.9445 7.77801ZM33.4048 9.99096C33.3229 10.0317 33.218 10.1589 33.1719 10.2736C33.0955 10.4631 33.1123 10.5338 33.3549 11.0463C33.6602 11.6908 33.876 11.9464 34.1152 11.9464C34.2991 11.9464 34.6817 11.5976 34.6817 11.43C34.6817 11.2441 34.1168 10.1842 33.9427 10.0434C33.7565 9.89273 33.6275 9.88014 33.4048 9.99096ZM34.5476 13.0144C34.3682 13.2124 34.3719 13.3124 34.5846 14.0456C34.78 14.7188 34.9241 14.8995 35.2653 14.8995C35.4964 14.8995 35.7754 14.6449 35.7754 14.4339C35.7754 14.1735 35.3482 12.9967 35.2301 12.9316C35.0107 12.8109 34.6975 12.8489 34.5476 13.0144ZM8.59496 14.572C8.35358 14.7856 8.33923 15.1447 8.56454 15.3324C8.69347 15.4398 8.84201 15.462 9.42778 15.462C10.0676 15.462 10.1486 15.4473 10.2747 15.3081C10.4646 15.0985 10.4526 14.7922 10.2462 14.58C10.0917 14.4209 10.0274 14.4074 9.42976 14.4074C8.84809 14.4074 8.76182 14.4244 8.59496 14.572ZM35.2989 16.1278C35.1564 16.2838 35.1447 16.3451 35.1837 16.7288C35.2369 17.2527 35.3029 17.3872 35.5607 17.497C35.819 17.6071 36.1627 17.4434 36.2271 17.1797C36.2993 16.8836 36.1903 16.2856 36.0325 16.1124C35.8349 15.8957 35.5046 15.9026 35.2989 16.1278ZM10.3469 16.885C10.1288 17.0029 10.0246 17.2983 10.1115 17.5524C10.208 17.8347 10.4409 17.9208 11.1109 17.9219C11.6365 17.9228 11.7268 17.9039 11.8914 17.7583C12.1269 17.55 12.1429 17.209 11.9276 16.9874C11.7985 16.8546 11.6901 16.8304 11.1472 16.8132C10.7262 16.7998 10.4601 16.8237 10.3469 16.885ZM37.6118 20.0838C37.7109 20.1591 37.836 20.3488 37.8897 20.5051C38.1013 21.1207 37.5844 22.7402 36.9339 23.5004C36.7749 23.6862 35.9343 24.4928 35.0658 25.2927C32.392 27.7558 28.8399 31.0889 28.7814 31.1898C28.7509 31.2423 28.6978 31.8447 28.6634 32.5283L28.6008 33.7711L28.2065 34.1809C27.9897 34.4063 27.7713 34.582 27.7211 34.5713C27.671 34.5606 27.3575 33.9396 27.0245 33.1912C26.6915 32.4428 26.4048 31.8159 26.3874 31.798C26.37 31.7801 25.7605 31.4852 25.0329 31.1426C24.3052 30.8002 23.7015 30.4777 23.6911 30.4262C23.6807 30.3745 23.8515 30.1499 24.0706 29.9269L24.469 29.5213L25.6857 29.4565C26.4883 29.4138 26.944 29.3605 27.0247 29.3C27.0919 29.2495 28.7159 27.4182 30.6335 25.2306C32.5511 23.0429 34.2692 21.1179 34.4515 20.9529C35.0948 20.3704 36.4196 19.8608 37.1333 19.9213C37.2974 19.9352 37.5128 20.0083 37.6118 20.0838ZM7.93509 21.6671C7.74655 21.8144 7.68325 22.0868 7.78169 22.3276C7.89667 22.6088 7.9774 22.6339 8.76709 22.6339C9.37501 22.6339 9.44617 22.6197 9.58186 22.4712C9.77929 22.255 9.77505 21.9281 9.57229 21.7321C9.43161 21.5962 9.33823 21.5792 8.73086 21.5792C8.28987 21.5792 8.00775 21.6104 7.93509 21.6671ZM21.3105 26.3839C21.0812 26.5867 21.0676 26.9434 21.2808 27.1627C21.4761 27.3638 22.5189 27.4185 22.8454 27.2447C23.0862 27.1166 23.1807 26.8564 23.0863 26.5806C22.9932 26.3084 22.7542 26.222 22.0903 26.2209C21.5653 26.22 21.4743 26.239 21.3105 26.3839ZM35.6119 29.614L36.0077 32.1996L35.569 32.6548C35.222 33.0149 35.1132 33.0917 35.0481 33.0224C35.0027 32.9741 34.4131 32.0768 33.7377 31.0284L32.5097 29.122L33.8142 27.9059C35.036 26.767 35.1219 26.7006 35.1675 26.8591C35.1943 26.9522 35.3942 28.192 35.6119 29.614ZM19.1268 28.3612C18.9217 28.5721 18.9127 28.8123 19.1007 29.058C19.2376 29.2371 19.2663 29.2433 19.9583 29.2433C20.6357 29.2433 20.6836 29.2336 20.8496 29.0629C20.9911 28.9173 21.017 28.8391 20.9831 28.6586C20.9096 28.2671 20.7409 28.1886 19.9737 28.1886C19.3438 28.1886 19.2824 28.2011 19.1268 28.3612Z" fill="black"/>
</svg>
