<svg width="34" height="32" viewBox="0 0 34 32" fill="none" xmlns="http://www.w3.org/2000/svg">
<path fill-rule="evenodd" clip-rule="evenodd" d="M27.2227 1.0756C26.9853 1.13199 26.5073 1.32661 26.1604 1.50816C25.6376 1.78182 25.4326 1.9415 24.9622 2.44177C24.5096 2.92306 24.3388 3.16641 24.1192 3.64299C23.7288 4.49004 23.6151 5.00564 23.6151 5.92814C23.6151 6.81457 23.7278 7.3557 24.069 8.10783C24.6388 9.36368 25.7774 10.3478 27.092 10.7209C27.6733 10.8857 28.8313 10.8839 29.4141 10.7172C31.12 10.2291 32.4829 8.72686 32.8425 6.93825C32.9846 6.23154 32.9333 5.04382 32.7337 4.41797C32.2294 2.83615 31.1609 1.7004 29.713 1.20694C29.0432 0.978779 27.8878 0.917818 27.2227 1.0756ZM29.029 2.17325C29.6582 2.31113 30.32 2.69862 30.8013 3.21085C31.5248 3.98091 31.8712 4.86066 31.8712 5.92814C31.8712 8.33424 29.8298 10.1227 27.5852 9.68339C26.3623 9.44398 25.2783 8.47648 24.8469 7.23919C24.6483 6.6698 24.5796 5.69499 24.696 5.10106C24.9615 3.74705 26.086 2.52748 27.3736 2.19715C27.8133 2.08437 28.5734 2.0734 29.029 2.17325ZM27.8204 3.04442C27.8204 3.3353 27.8032 3.36743 27.5996 3.4575C27.1724 3.6465 26.8222 4.27496 26.8257 4.84646C26.8276 5.15555 27.0234 5.59747 27.2642 5.83639C27.3692 5.94059 27.6854 6.13683 27.9667 6.27254C28.2481 6.40824 28.5394 6.58402 28.6142 6.66319C28.8179 6.87891 28.7898 7.18097 28.5457 7.39845C28.2802 7.63505 27.8508 7.64089 27.2652 7.41582L26.8367 7.25114L26.7973 7.45976C26.7301 7.81526 26.7525 8.21618 26.8409 8.24178C26.8866 8.25507 27.0882 8.30421 27.2891 8.35104C27.9171 8.4975 27.8868 8.47395 27.8868 8.81567V9.12736H28.2852H28.6837V8.78649C28.6837 8.45609 28.692 8.4416 28.9525 8.31722C29.4935 8.05896 29.7843 7.50687 29.732 6.83799C29.6838 6.22318 29.4597 5.95704 28.623 5.52104C27.8567 5.12173 27.7295 4.96423 27.8589 4.57477C27.9582 4.27594 28.2335 4.17019 28.6792 4.2597C28.8825 4.30048 29.098 4.35455 29.1581 4.37979C29.2496 4.41832 29.2749 4.35554 29.3149 3.99068C29.3693 3.49484 29.347 3.46264 28.8995 3.39099L28.6173 3.34578V3.03732V2.72893H28.2188H27.8204V3.04442ZM24.0894 12.3823C23.3839 12.9737 22.2007 13.9704 21.4601 14.5972C20.7196 15.2239 20.0909 15.7367 20.0631 15.7367C20.0354 15.7367 18.5047 15.0725 16.6616 14.2606C14.8186 13.4488 13.2453 12.7843 13.1655 12.784C13.033 12.7837 5.644 18.3025 5.54121 18.4787C5.36071 18.7879 5.63749 19.3227 5.97803 19.3227C6.11031 19.3227 7.08004 18.6269 9.55825 16.7539C11.4276 15.341 13.0265 14.1368 13.1113 14.0779C13.2579 13.9763 13.4351 14.0452 16.6391 15.4515C18.4945 16.2658 20.0935 16.932 20.1926 16.932C20.2978 16.932 20.506 16.8244 20.6932 16.6732C21.7317 15.8344 25.8194 12.3861 25.9444 12.2433C26.2675 11.8743 26.0589 11.307 25.6002 11.307C25.4062 11.307 25.1803 11.4679 24.0894 12.3823ZM25.6442 13.8853C25.5978 13.9052 25.5155 14.0118 25.4616 14.1224C25.3766 14.2964 25.3633 15.3862 25.3633 22.202V30.0805H24.5345H23.7056L23.6878 24.8361L23.67 19.5917L23.4836 19.422L23.2973 19.2524H20.7725H18.2476L18.0535 19.4579L17.8594 19.6634V24.8719V30.0805H17.0305H16.2016L16.1838 24.4141L16.1661 18.7477L16.0093 18.6133C15.861 18.4862 15.7138 18.4789 13.2817 18.4789H10.7107L10.5663 18.6416L10.4219 18.8044V24.4424V30.0805H9.55865H8.69537V26.0343V21.9881L8.53234 21.8156L8.36938 21.643H5.8067H3.24401L3.08105 21.8156L2.91802 21.9881V26.0302V30.0723L1.58392 30.094C0.273528 30.1153 0.247563 30.1186 0.122985 30.2816C-0.0536561 30.5128 -0.0386483 30.8234 0.159176 31.0329L0.322137 31.2055H16.9962H33.6702L33.8331 31.0329C34.0616 30.7909 34.0562 30.4219 33.8212 30.2262C33.6582 30.0905 33.5603 30.0805 32.3934 30.0805H31.1407V22.132V14.1835L30.9777 14.0109L30.8147 13.8383L28.2716 13.8439C26.873 13.8469 25.6906 13.8656 25.6442 13.8853ZM30.0782 22.5219V30.0805H28.252H26.4258V22.5219V14.9633H28.252H30.0782V22.5219ZM15.1206 24.8246L15.1376 30.0805H13.311H11.4844V24.8059V19.5314L13.294 19.5501L15.1036 19.5688L15.1206 24.8246ZM22.5743 25.2289V30.0805H20.7481H18.9219V25.2289V20.3774H20.7481H22.5743V25.2289ZM7.63287 26.4242V30.0805H5.8067H3.98052V26.4242V22.768H5.8067H7.63287V26.4242Z" fill="black"/>
</svg>
