<svg width="22" height="41" viewBox="0 0 22 41" fill="none" xmlns="http://www.w3.org/2000/svg">
<path fill-rule="evenodd" clip-rule="evenodd" d="M2.31178 1.03725C1.48268 1.24942 0.535833 2.12161 0.213255 2.97019C0.0468734 3.40797 0.039566 3.51632 0.0176426 5.87796C-0.00509288 8.32278 -0.00457626 8.33154 0.159296 8.51634C0.374618 8.75907 0.734325 8.76345 0.944628 8.5258C1.09462 8.35632 1.10112 8.26486 1.12356 6.00468L1.14688 3.65945L1.37453 3.2295C1.62197 2.76225 2.10539 2.3534 2.57324 2.21581C2.72249 2.17188 3.24703 2.13576 3.7388 2.13552L4.63294 2.13506L4.67147 2.64358C4.74403 3.60035 5.3381 4.46957 6.10985 4.74803C6.61498 4.93033 11.4017 4.93033 11.9068 4.74803C12.6808 4.46871 13.2669 3.62506 13.3415 2.68298L13.3849 2.13506H14.2884C15.4424 2.13506 15.8481 2.26092 16.3291 2.76819C16.9327 3.40484 16.9067 3.05712 16.9067 10.4784V16.9953L17.0879 17.1871C17.3194 17.4324 17.6019 17.4316 17.8347 17.1851L18.0178 16.9911L17.9974 10.1689L17.977 3.34676L17.7395 2.83284C17.4351 2.17414 16.8698 1.57541 16.2478 1.25302L15.7625 1.00153L9.15596 0.988942C5.52235 0.982063 2.44251 1.0038 2.31178 1.03725ZM12.2261 2.54547C12.1733 2.98614 12.0349 3.24216 11.7113 3.49826C11.5172 3.65179 11.3967 3.66063 9.16917 3.68377C7.69845 3.69909 6.73375 3.67798 6.56929 3.62693C6.42556 3.58222 6.21172 3.43939 6.0942 3.30947C5.91889 3.11567 5.87482 2.98911 5.84854 2.60418L5.81651 2.13506H9.0459H12.2753L12.2261 2.54547ZM12.6783 9.74947C11.6055 10.8289 11.4663 10.9443 11.3338 10.8634C11.2312 10.801 10.5179 10.7733 9.00833 10.7733C7.09095 10.7733 6.80314 10.7893 6.59962 10.9073C6.28605 11.0891 6.00334 11.4605 5.91129 11.8115C5.8075 12.2073 5.81178 15.766 5.91653 16.1655C5.96141 16.3366 6.11974 16.6053 6.26841 16.7629C6.41715 16.9203 6.67093 17.088 6.83244 17.1355C7.2264 17.2513 10.7536 17.2516 11.1878 17.1358C11.5608 17.0364 11.9489 16.6607 12.0828 16.2695C12.1423 16.0953 12.1731 15.3453 12.1768 13.9683L12.1824 11.9255L13.4004 10.6724C14.4645 9.57756 14.6184 9.3883 14.6184 9.17418C14.6184 9.01822 14.5525 8.85937 14.4371 8.73726C14.0957 8.37555 13.9743 8.44536 12.6783 9.74947ZM0.182548 10.224L0 10.4174L0.0197832 20.2889L0.0396396 30.1605L0.269208 30.6687C0.713361 31.6516 1.46001 32.2931 2.40723 32.5056C2.77793 32.5888 3.42906 32.6207 4.77592 32.6217L6.63328 32.623L6.83532 33.1898C7.08799 33.8986 7.48276 34.7433 7.77596 35.2028C8.40879 36.1944 9.38043 37.1358 10.3423 37.6891L10.8444 37.978L11.1535 39.2892C11.3312 40.0428 11.5238 40.6827 11.6064 40.794C11.9004 41.1899 12.5515 40.9272 12.5515 40.4127C12.5515 40.2955 12.4011 39.559 12.2171 38.7761C11.8341 37.1454 11.8806 37.2184 10.8153 36.5722C10.0773 36.1245 9.38722 35.4851 8.8979 34.7957C8.55546 34.3134 8.02627 33.238 7.93444 32.838L7.88506 32.623H9.37512H10.8651L11.0809 32.3945C11.4 32.0565 11.3485 31.6875 10.9509 31.4632C10.834 31.3973 9.66795 31.372 6.70644 31.3715L2.62321 31.3707L2.25 31.1867C2.0439 31.085 1.75402 30.8507 1.60248 30.6632C1.0834 30.0209 1.10998 30.5996 1.10998 19.9503V10.3547L0.91547 10.1927C0.657039 9.97734 0.405252 9.98813 0.182548 10.224ZM9.66278 12.8352L8.82378 13.6855L8.5813 13.4606C8.30781 13.207 8.08643 13.1774 7.83841 13.3614C7.43249 13.6625 7.50963 14.067 8.07049 14.5791C8.5686 15.034 8.75853 15.1365 8.98913 15.0752C9.09285 15.0476 9.58801 14.599 10.0895 14.0782L11.0014 13.1314V14.5516V15.9719H9.00833H7.01528V13.9785V11.985H8.75853H10.5018L9.66278 12.8352ZM18.1246 18.2616C17.7078 18.4732 17.2421 18.978 17.0765 19.3978C17.0065 19.5752 16.9027 20.4714 16.7962 21.8175L16.6271 23.9555L16.3055 24.2368C15.1199 25.2737 14.0777 26.6793 13.3623 28.2062C12.77 29.4706 12.6 29.9964 12.2193 31.7424C11.9548 32.9552 11.948 33.0204 12.0663 33.2116C12.2898 33.5728 12.7344 33.6193 12.979 33.3072C13.0281 33.2446 13.1868 32.6516 13.3317 31.9897C13.7974 29.8624 14.1737 28.8823 15.0712 27.4594C15.525 26.7399 16.5445 25.5779 17.3357 24.8786L17.7278 24.532L17.9053 22.2467C18.0987 19.7559 18.1353 19.595 18.557 19.383C18.9027 19.2093 19.1271 19.2224 19.4229 19.4335C19.8817 19.7609 19.8694 19.6287 19.8289 23.7893C19.8086 25.8746 19.7705 27.7116 19.744 27.8717C19.7019 28.1273 19.7241 28.1923 19.9272 28.4073C20.1145 28.6057 20.1964 28.6422 20.3594 28.6001C20.7309 28.5041 20.8349 28.3125 20.8985 27.6067C20.9308 27.2485 20.9587 25.3196 20.9603 23.3203C20.9636 19.3156 20.9735 19.4102 20.4904 18.8042C20.13 18.3521 19.6904 18.1376 19.056 18.104C18.5785 18.0789 18.438 18.1026 18.1246 18.2616ZM4.27323 20.8981C4.09732 20.9966 3.95028 21.1663 3.84878 21.3884C3.7103 21.6914 3.69355 21.8667 3.69355 23.0157C3.69355 24.1957 3.70743 24.3326 3.85964 24.6522C4.15468 25.2719 4.1676 25.2744 7.09471 25.2745L9.64691 25.2746L9.80746 25.0937C10.0206 24.8534 10.0161 24.4899 9.79713 24.272C9.62897 24.1048 9.58815 24.102 7.25046 24.102H4.87461V23.0076V21.9131H9.00833H13.142V23.0076V24.102H12.3429C11.603 24.102 11.5319 24.1155 11.3833 24.2829C11.1534 24.5421 11.1713 24.9076 11.424 25.1182C11.6114 25.2743 11.6948 25.2841 12.6369 25.2607C13.7665 25.2326 13.9214 25.1714 14.1865 24.6479C14.3041 24.4155 14.3231 24.1931 14.3231 23.0449C14.3231 21.8161 14.3101 21.6849 14.157 21.3687C13.8384 20.7105 14.0817 20.7401 9.00951 20.744C4.74492 20.7473 4.53026 20.7543 4.27323 20.8981ZM19.6082 30.0628C19.446 30.2166 19.3855 30.4403 19.1267 31.8425C18.9639 32.7245 18.8502 33.5336 18.8742 33.6405C18.9636 34.0397 20.8976 40.5386 20.9692 40.6802C21.0602 40.8602 21.2727 40.9877 21.4818 40.9877C21.6875 40.9877 22 40.6499 22 40.4275C22 40.3305 21.5485 38.7232 20.9965 36.8558L19.9931 33.4606L20.2652 31.9537C20.4149 31.1249 20.5153 30.3732 20.4884 30.2833C20.4382 30.1156 20.101 29.8869 19.904 29.8869C19.8434 29.8869 19.7103 29.966 19.6082 30.0628Z" fill="black"/>
</svg>
