<svg width="35" height="37" viewBox="0 0 35 37" fill="none" xmlns="http://www.w3.org/2000/svg">
<path d="M23.14 16.8696V17.7336H18.988V21.0456C18.988 21.4216 19.036 21.6776 19.132 21.8136C19.236 21.9496 19.436 22.0176 19.732 22.0176C19.972 22.0176 20.212 21.9656 20.452 21.8616C20.7 21.7576 20.92 21.6176 21.112 21.4416C21.312 21.2656 21.472 21.0656 21.592 20.8416C21.712 20.6096 21.772 20.3736 21.772 20.1336C21.772 19.9416 21.716 19.7936 21.604 19.6896C21.5 19.5856 21.328 19.5336 21.088 19.5336C20.872 19.5336 20.672 19.5576 20.488 19.6056L20.368 18.7896C20.504 18.7496 20.648 18.7216 20.8 18.7056C20.96 18.6816 21.12 18.6696 21.28 18.6696C21.704 18.6696 22.048 18.7776 22.312 18.9936C22.584 19.2016 22.72 19.5416 22.72 20.0136C22.72 20.3816 22.632 20.7376 22.456 21.0816C22.288 21.4176 22.06 21.7216 21.772 21.9936C21.484 22.2576 21.16 22.4656 20.8 22.6176C20.44 22.7696 20.072 22.8456 19.696 22.8456C19.4 22.8456 19.156 22.8136 18.964 22.7496C18.772 22.6776 18.612 22.5816 18.484 22.4616C18.404 22.3816 18.332 22.2936 18.268 22.1976C18.204 22.0936 18.152 21.9576 18.112 21.7896C18.08 21.6136 18.064 21.3816 18.064 21.0936V17.7336H16.9V16.8696H23.14ZM17.5 13.8576C17.732 13.8576 17.932 13.8896 18.1 13.9536C18.276 14.0176 18.424 14.1136 18.544 14.2416C18.688 14.3936 18.796 14.6016 18.868 14.8656C18.948 15.1216 18.988 15.4856 18.988 15.9576V16.9656H18.064V16.0056C18.064 15.7256 18.044 15.4936 18.004 15.3096C17.972 15.1176 17.896 14.9736 17.776 14.8776C17.656 14.7736 17.476 14.7216 17.236 14.7216C17.084 14.7216 16.932 14.7456 16.78 14.7936C16.636 14.8336 16.512 14.8736 16.408 14.9136L16.084 14.1696C16.324 14.0656 16.556 13.9896 16.78 13.9416C17.012 13.8856 17.252 13.8576 17.5 13.8576Z" fill="black"/>
<path fill-rule="evenodd" clip-rule="evenodd" d="M14.0975 1.13504C13.5779 1.39962 13.263 1.92858 13.2621 2.53841C13.2612 3.0938 13.8798 4.53978 14.4549 5.32644C14.6309 5.56733 14.9584 5.93513 15.1827 6.14389L15.5904 6.52344L15.5711 7.35144L15.5518 8.17944L13.835 9.28011C12.8909 9.88543 11.9834 10.4988 11.8184 10.643C11.0687 11.2986 10.4424 12.2831 10.1113 13.3261C9.9681 13.7772 9.95278 13.9746 9.9279 15.6894L9.90069 17.5606L10.0866 17.7109C10.3309 17.9086 10.5632 17.901 10.7697 17.6886C10.9372 17.5164 10.9375 17.5138 10.9375 16.0333C10.9375 13.9564 11.0914 13.2775 11.791 12.2691C12.2377 11.6253 12.6231 11.3213 14.5417 10.0997L16.2659 9.00188H18.8837H21.5013L23.2433 10.1048C24.7314 11.0469 25.0653 11.2903 25.5337 11.7747C25.9374 12.1921 26.1486 12.4809 26.3341 12.8691C26.803 13.8506 26.7948 13.7326 26.7958 19.4649C26.7966 23.1436 26.8196 24.7122 26.8763 24.9437C27.0238 25.5465 27.6893 26.0859 28.2871 26.0874C28.5 26.088 28.8279 26.27 28.914 26.4355C28.9527 26.5099 28.9844 26.867 28.9844 27.2291V27.8875L26.3696 28.7659L23.7549 29.6444L23.7506 29.1493C23.7435 28.3332 23.2911 27.5675 22.5987 27.1997C22.4431 27.117 21.5422 26.8981 20.4454 26.6764C17.9087 26.1635 14.3905 25.4824 13.6544 25.3616C12.6273 25.1931 12.1007 25.3752 10.6299 26.4076C9.86918 26.9415 9.07539 27.3534 8.80701 27.3534C8.7593 27.3534 8.74426 27.2019 8.76394 26.9211C8.80305 26.3655 9.02098 26.1327 9.56368 26.0666C10.0366 26.009 10.44 25.77 10.6952 25.3963L10.9033 25.0916L10.9234 22.32L10.9434 19.5485L10.7727 19.3728C10.5648 19.159 10.3322 19.1488 10.0922 19.3429L9.91211 19.4886V22.0695C9.91211 25.0283 9.93392 24.9137 9.35628 24.9926C8.33684 25.1316 7.72666 25.8479 7.72529 26.9073L7.72461 27.4104L7.43408 27.372C7.27426 27.3509 6.88208 27.267 6.5625 27.1853L5.98145 27.037L5.94262 26.5728C5.88978 25.9412 5.64854 25.5236 5.17508 25.2443L4.81934 25.0345L2.97063 25.0338L1.12191 25.0331L0.751885 25.2616C0.466484 25.4379 0.338242 25.5764 0.190928 25.8673L0 26.2445L0.00150391 30.8595C0.00293945 35.1908 0.0107324 35.492 0.128926 35.7597C0.282051 36.1064 0.757832 36.5399 1.08931 36.6345C1.40636 36.7252 4.54091 36.7252 4.85796 36.6345C5.18943 36.5399 5.66521 36.1064 5.81834 35.7597C5.90256 35.569 5.94474 35.3072 5.94576 34.9691L5.94727 34.4636L6.23779 34.4263C6.39762 34.4058 7.37427 34.3408 8.4082 34.2819C10.2831 34.1752 10.79 34.1927 11.5006 34.3893C11.6412 34.4281 12.764 34.8409 13.9958 35.3063C16.7693 36.3546 17.1132 36.4456 18.2861 36.4427C19.6563 36.4392 20.3441 36.267 23.6523 35.0994C24.5359 34.7876 25.874 34.342 26.626 34.1093C27.713 33.7728 28.0247 33.6488 28.147 33.5041C28.2316 33.404 28.3008 33.2649 28.3008 33.1949C28.3008 33.0308 28.0612 32.7177 27.8938 32.6631C27.7493 32.6159 25.5791 33.2792 23.5156 34.0013C20.125 35.1878 19.8057 35.276 18.6491 35.3456C17.5547 35.4116 17.1016 35.3104 15.0732 34.5475C10.9007 32.9779 11.2048 33.0369 8.19082 33.2128C7.05086 33.2793 6.07975 33.3329 6.03271 33.3318C5.96593 33.3304 5.94727 32.7671 5.94727 30.7548V28.1796L6.13525 28.2209C6.23868 28.2436 6.53857 28.3103 6.80176 28.3691C7.43025 28.5095 8.67036 28.5101 9.19707 28.3702C9.80854 28.2079 10.4088 27.8957 11.1371 27.3612C11.9744 26.7466 12.5738 26.4368 13.0152 26.3904C13.3774 26.3522 14.4519 26.5513 19.7049 27.6299C21.4296 27.984 22.1344 28.1571 22.277 28.2615C22.66 28.5421 22.8157 29.2304 22.5952 29.6689C22.4536 29.9506 22.1161 30.223 21.8433 30.2756C21.7154 30.3002 20.5704 30.2065 19.2989 30.0671C18.0275 29.9279 16.9167 29.814 16.8304 29.8142C16.6225 29.8144 16.3379 30.1152 16.3379 30.3346C16.3379 30.4309 16.4071 30.5913 16.4917 30.691C16.6419 30.8679 16.6988 30.8781 18.9014 31.1187C20.1421 31.2542 21.362 31.3658 21.6122 31.3666C22.0184 31.3679 22.4258 31.2463 25.4062 30.2341C32.7883 27.7273 32.2599 27.896 32.5846 27.9418C33.4051 28.0575 33.9343 28.6676 33.9343 29.498C33.9343 29.7948 33.8902 30.0064 33.7855 30.2119C33.509 30.7547 33.2968 30.8686 31.461 31.4593C29.6757 32.0338 29.4629 32.1477 29.4629 32.5285C29.4629 32.6248 29.542 32.7849 29.6386 32.8844C29.8715 33.1238 29.9376 33.1108 32.0006 32.419C33.8924 31.7845 34.1445 31.6396 34.59 30.9307C35.428 29.597 34.9362 27.8118 33.5368 27.1076C33.2228 26.9496 33.0137 26.8989 32.5806 26.8759C32.0733 26.8491 31.9512 26.8718 31.1377 27.1444C30.6489 27.3082 30.215 27.4555 30.1734 27.4717C30.1236 27.4913 30.0857 27.3013 30.0622 26.9142C29.9948 25.8023 29.4344 25.1486 28.417 24.9953C28.2366 24.9681 28.0443 24.8999 27.9897 24.8438C27.905 24.7566 27.8906 24.0061 27.8906 19.6584C27.8906 14.0431 27.8772 13.8249 27.4679 12.8137C27.1709 12.08 26.6723 11.3415 26.1201 10.8173C25.8161 10.5288 25.0506 9.9909 23.9369 9.28313L22.2219 8.19329L22.2193 7.33857L22.2168 6.48385L22.7032 6.00263C23.2885 5.42347 23.6385 4.91012 24.0347 4.04977C24.6254 2.7672 24.6528 2.15387 24.1464 1.54538C23.6606 0.961648 23.9244 0.989562 18.8672 0.987874C14.4447 0.986398 14.386 0.988226 14.0975 1.13504ZM23.2064 2.12328C23.4656 2.24478 23.4929 2.48912 23.3092 3.04409C23.0606 3.79489 22.576 4.61529 22.0663 5.14805L21.6082 5.62688H18.9005H16.193L15.8126 5.25774C15.1981 4.66128 14.7267 3.87202 14.429 2.94115C14.2693 2.44187 14.2938 2.26651 14.5443 2.11639C14.7236 2.00895 22.9765 2.01556 23.2064 2.12328ZM21.123 7.31438V7.94719H18.8672H16.6113V7.31438V6.68157H18.8672H21.123V7.31438ZM4.7263 26.2222L4.8877 26.3566L4.90629 30.739C4.91928 33.7832 4.90219 35.1779 4.85044 35.3064C4.72466 35.6188 4.54877 35.6503 2.93098 35.6503H1.42502L1.2237 35.4432L1.02238 35.2362L1.04098 30.7964L1.05957 26.3566L1.22097 26.2222C1.36951 26.0985 1.50883 26.0878 2.97363 26.0878C4.43844 26.0878 4.57775 26.0985 4.7263 26.2222Z" fill="black"/>
</svg>
