<svg width="28" height="45" viewBox="0 0 28 45" fill="none" xmlns="http://www.w3.org/2000/svg">
<path fill-rule="evenodd" clip-rule="evenodd" d="M21.9129 1.02601C23.0165 1.20993 23.914 2.01666 24.1958 3.07818C24.2962 3.45633 24.3148 5.6649 24.2198 5.91239C24.1237 6.16216 23.8304 6.41957 23.5676 6.48444L23.3278 6.5437L23.3449 8.04987C23.3607 9.44664 23.37 9.56848 23.4731 9.72667C23.5342 9.82054 24.3496 10.4992 25.285 11.2349C27.0975 12.6601 27.3571 12.9172 27.6769 13.6026C28.0219 14.342 27.9996 13.3034 27.9998 28.634C27.9999 40.4509 27.9878 42.6884 27.9224 42.9295C27.6716 43.8537 26.9669 44.5746 26.0289 44.8666L25.6399 44.9877H14H2.36007L1.97115 44.8666C1.03306 44.5746 0.328385 43.8537 0.0776405 42.9295C0.0121902 42.6884 7.7459e-05 40.4509 0.000244141 28.634C0.000410822 13.3034 -0.0219223 14.342 0.323109 13.6026C0.642915 12.9172 0.90255 12.6601 2.71499 11.2349C3.65041 10.4992 4.46581 9.82054 4.52693 9.72667C4.62999 9.56848 4.63927 9.44664 4.65511 8.04987L4.67216 6.5437L4.43236 6.48444C4.16962 6.41957 3.87626 6.16216 3.78025 5.91239C3.68363 5.66098 3.70391 3.4559 3.80637 3.06995C4.04483 2.17169 4.73689 1.44684 5.66592 1.12233L6.02706 0.996189L13.8333 0.98834C18.1268 0.984033 21.7626 1.00099 21.9129 1.02601ZM6.11052 2.95858C6.02195 3.0035 5.87944 3.13029 5.79382 3.2403C5.64792 3.42777 5.63697 3.47923 5.61947 4.05804L5.60081 4.67577H14H22.3992L22.3805 4.06251C22.364 3.51995 22.3466 3.4282 22.2291 3.26668C22.1562 3.16627 22.0187 3.03757 21.9235 2.98071C21.756 2.88046 21.5131 2.87725 14.0111 2.87708C7.24234 2.87687 6.25136 2.88711 6.11052 2.95858ZM6.55489 7.42865V8.3281H8.97355C11.6225 8.3281 11.628 8.3287 11.9037 8.65022C12.2161 9.01452 12.2209 9.48954 11.9156 9.84545C11.6253 10.184 11.6471 10.1815 8.90499 10.1815H6.41038L6.28236 10.4405C6.01256 10.9864 5.77159 11.2195 4.22557 12.4305C2.43846 13.8304 2.26162 13.9875 2.06371 14.3517L1.91558 14.6243L1.90125 28.5572L1.88697 42.49L2.0137 42.6745C2.26256 43.0368 2.44174 43.107 3.11836 43.107H3.7213V41.666C3.7213 40.7825 3.74413 40.1656 3.78025 40.0715C3.86798 39.8432 4.16217 39.5698 4.38558 39.509C4.49387 39.4794 5.22627 39.4552 6.01317 39.455L7.44386 39.4547V38.5584V37.6621L6.34204 37.6453L5.24022 37.6285L5.03047 37.4714C4.66094 37.1946 4.66027 37.1894 4.67789 34.8224C4.69305 32.7795 4.69772 32.6975 4.80818 32.5525C4.87118 32.4698 4.99169 32.3515 5.07603 32.2897C5.2226 32.1822 5.31878 32.1761 7.25423 32.15L9.27908 32.1228L8.97227 31.8826C8.80353 31.7506 8.45661 31.43 8.20137 31.1702C5.78749 28.7134 4.97925 25.2239 6.06123 21.9302C6.2837 21.253 6.86836 20.1245 7.31862 19.5031C7.80139 18.8369 8.82609 17.8325 9.4996 17.3654C13.0359 14.9127 17.672 15.1074 21.0031 17.8486C21.6332 18.3671 22.4123 19.2288 22.6321 19.6503C22.8294 20.0289 22.6867 20.5484 22.3172 20.7961C21.8773 21.0911 21.3532 20.9779 20.9682 20.5047C20.5608 20.0039 19.5838 19.0854 19.1667 18.8109C17.1755 17.5007 14.7875 17.1707 12.5644 17.8987C11.4935 18.2494 10.6058 18.8001 9.71584 19.666C8.15337 21.1863 7.44119 22.9491 7.51386 25.1164C7.5377 25.8273 7.56926 26.0633 7.7111 26.5897C8.08064 27.9619 8.72286 29.0571 9.72495 30.024C12.2165 32.4282 16.037 32.8165 18.9727 30.9639C20.3941 30.067 21.5522 28.5834 22.0322 27.0447C22.1918 26.5331 22.3141 26.3572 22.6149 26.2066C23.1668 25.9304 23.7887 26.2148 23.9527 26.8183C24.0184 27.06 24.0107 27.1087 23.8132 27.6977C23.296 29.2405 22.2648 30.7553 21.0559 31.7481L20.6099 32.1144L20.8122 32.1826C21.0816 32.2735 21.3778 32.5631 21.4453 32.8018C21.4754 32.908 21.5002 33.6266 21.5003 34.3986L21.5007 35.8023H22.511C23.7031 35.8023 23.8992 35.858 24.1425 36.2653L24.2825 36.4996L24.2667 38.622L24.2509 40.7443L24.0952 40.9445C23.8283 41.2879 23.7427 41.3081 22.5591 41.3081H21.5007V42.2075V43.107H23.4926C25.4725 43.107 25.4858 43.1062 25.672 42.983C25.7752 42.9149 25.9166 42.7761 25.9863 42.6745L26.113 42.49L26.0988 28.5572L26.0844 14.6243L25.9363 14.3517C25.7384 13.9875 25.5615 13.8304 23.7744 12.4305C22.2299 11.2207 21.9873 10.9861 21.7187 10.4427L21.5919 10.1861L19.9725 10.1702L18.3531 10.1543L18.1482 10.018C17.9122 9.8611 17.7226 9.52105 17.7226 9.25481C17.7226 8.95778 17.9244 8.61696 18.1912 8.46362C18.4265 8.32827 18.4287 8.3281 19.936 8.3281H21.4451V7.42865V6.52919H14H6.55489V7.42865ZM15.4258 8.46198C15.9625 8.78497 16.0361 9.49745 15.5764 9.9191C15.2723 10.1981 14.9137 10.2521 14.5223 10.0777C13.898 9.7995 13.8157 8.92343 14.3744 8.50527C14.6588 8.29245 15.1131 8.2737 15.4258 8.46198ZM23.5842 22.5493C23.8486 22.6685 23.967 22.79 24.0821 23.0603C24.1975 23.3312 24.1897 23.5124 24.0505 23.7944C23.8829 24.1341 23.6096 24.3002 23.2184 24.3002C22.6787 24.3002 22.2785 23.9243 22.2785 23.4172C22.2785 22.9958 22.5368 22.6408 22.9396 22.5087C23.1975 22.4242 23.3241 22.4321 23.5842 22.5493ZM6.55489 34.9029V35.8023H13.0833H19.6116V34.9029V34.0034H13.0833H6.55489V34.9029ZM9.33292 38.5552V39.4547H15.8613H22.3896V38.5552V37.6558H15.8613H9.33292V38.5552ZM5.61036 42.2075V43.107H12.611H19.6116V42.2439C19.6116 41.7691 19.5949 41.3644 19.5746 41.3444C19.5542 41.3244 16.4039 41.3081 12.5739 41.3081H5.61036V42.2075Z" fill="black"/>
<path d="M18.14 24.0117V24.8757H13.988V28.1877C13.988 28.5637 14.036 28.8197 14.132 28.9557C14.236 29.0917 14.436 29.1597 14.732 29.1597C14.972 29.1597 15.212 29.1077 15.452 29.0037C15.7 28.8997 15.92 28.7597 16.112 28.5837C16.312 28.4077 16.472 28.2077 16.592 27.9837C16.712 27.7517 16.772 27.5157 16.772 27.2757C16.772 27.0837 16.716 26.9357 16.604 26.8317C16.5 26.7277 16.328 26.6757 16.088 26.6757C15.872 26.6757 15.672 26.6997 15.488 26.7477L15.368 25.9317C15.504 25.8917 15.648 25.8637 15.8 25.8477C15.96 25.8237 16.12 25.8117 16.28 25.8117C16.704 25.8117 17.048 25.9197 17.312 26.1357C17.584 26.3437 17.72 26.6837 17.72 27.1557C17.72 27.5237 17.632 27.8797 17.456 28.2237C17.288 28.5597 17.06 28.8637 16.772 29.1357C16.484 29.3997 16.16 29.6077 15.8 29.7597C15.44 29.9117 15.072 29.9877 14.696 29.9877C14.4 29.9877 14.156 29.9557 13.964 29.8917C13.772 29.8197 13.612 29.7237 13.484 29.6037C13.404 29.5237 13.332 29.4357 13.268 29.3397C13.204 29.2357 13.152 29.0997 13.112 28.9317C13.08 28.7557 13.064 28.5237 13.064 28.2357V24.8757H11.9V24.0117H18.14ZM12.5 20.9997C12.732 20.9997 12.932 21.0317 13.1 21.0957C13.276 21.1597 13.424 21.2557 13.544 21.3837C13.688 21.5357 13.796 21.7437 13.868 22.0077C13.948 22.2637 13.988 22.6277 13.988 23.0997V24.1077H13.064V23.1477C13.064 22.8677 13.044 22.6357 13.004 22.4517C12.972 22.2597 12.896 22.1157 12.776 22.0197C12.656 21.9157 12.476 21.8637 12.236 21.8637C12.084 21.8637 11.932 21.8877 11.78 21.9357C11.636 21.9757 11.512 22.0157 11.408 22.0557L11.084 21.3117C11.324 21.2077 11.556 21.1317 11.78 21.0837C12.012 21.0277 12.252 20.9997 12.5 20.9997Z" fill="black"/>
</svg>
