<svg width="37" height="39" viewBox="0 0 37 39" fill="none" xmlns="http://www.w3.org/2000/svg">
<path fill-rule="evenodd" clip-rule="evenodd" d="M26.4302 1.12206C26.3551 1.19717 26.1994 1.52284 26.0843 1.84569C25.9693 2.16862 25.8336 2.53763 25.7828 2.66581L25.6905 2.89893L25.0289 2.76318C19.3427 1.59691 13.3715 4.12666 10.1179 9.08039C9.86136 9.471 9.62 9.87326 9.58156 9.97435C9.51602 10.1467 9.65222 12.7421 9.75946 13.3659C9.82069 13.722 10.2532 14.1654 10.6701 14.2995C11.5868 14.5945 16.3332 15.8292 16.5504 15.8292C17.0389 15.8292 17.3967 15.5724 17.861 14.8887L18.2914 14.2548L18.3677 15.0235C18.4515 15.8675 18.5734 16.1746 18.923 16.4236C19.0472 16.512 19.672 16.7262 20.3117 16.8995C20.9512 17.0729 21.4859 17.249 21.4999 17.2908C21.5139 17.3327 20.8394 19.9256 20.0011 23.0528C19.1628 26.18 18.4769 28.7564 18.4769 28.7781C18.4769 28.7998 17.2564 28.8175 15.7646 28.8175H13.0522L12.87 28.9997C12.643 29.2267 12.6375 29.4944 12.8548 29.7406L13.0218 29.9298L18.848 29.9488L24.6742 29.9679L25.0239 29.7941C25.2757 29.6689 26.0137 28.9709 27.6586 27.3021C30.1583 24.7661 30.2643 24.6842 31.2706 24.509C31.8505 24.408 32.2709 24.4687 33.234 24.7929L33.835 24.9953L30.0797 28.8025C27.7882 31.1257 26.2053 32.6734 26.0189 32.7732L25.7132 32.9367L14.6995 32.9562L3.6857 32.9757L3.72956 32.506C3.82842 31.4479 4.35589 30.652 5.25038 30.2114L5.74467 29.9679L8.36882 29.9308C10.8577 29.8956 10.9984 29.8863 11.0982 29.7496C11.2605 29.5274 11.2292 29.1644 11.0317 28.9789C10.8622 28.8197 10.8263 28.8175 8.34129 28.8193C6.87458 28.8204 5.68307 28.8533 5.48862 28.8981C4.51093 29.1232 3.479 29.9388 3.05499 30.8214C2.77807 31.3978 2.59409 32.2544 2.59409 32.9672C2.59409 33.9252 2.7878 34.0871 3.93425 34.0871C4.50782 34.0871 4.67919 34.1092 4.65069 34.1798C4.63013 34.2309 4.35144 34.8404 4.03141 35.5343C3.47529 36.7399 3.44938 36.82 3.44849 37.3341L3.4476 37.8722H1.88337C0.344294 37.8722 0.31661 37.875 0.157782 38.044C-0.0565619 38.2722 -0.0519603 38.6173 0.168173 38.8241L0.339989 38.9855H17.6516C28.5922 38.9855 35.0123 38.9592 35.0966 38.9141C35.17 38.8748 35.2706 38.7447 35.3202 38.6249C35.3945 38.4456 35.3902 38.3678 35.2961 38.1857C35.2331 38.064 35.1276 37.9437 35.0614 37.9183C34.9954 37.893 33.7501 37.8722 32.2941 37.8722H29.6468L29.6413 37.3341C29.636 36.8061 29.6184 36.7582 28.7003 34.7722L27.7647 32.7484L31.5076 28.9723L35.2503 25.1963V24.8473C35.2503 24.3208 35.0509 24.1768 33.7222 23.7439C32.0151 23.1877 31.0953 23.1884 29.9066 23.7467C29.384 23.9921 29.2069 24.1509 27.0121 26.3434C25.7262 27.6278 24.6241 28.7094 24.5628 28.7469C24.447 28.818 19.6644 28.848 19.6644 28.7777C19.6644 28.7238 22.6469 17.5786 22.6679 17.5539C22.6771 17.5432 23.1959 17.6721 23.8208 17.8404C25.5788 18.3139 25.8586 18.2442 26.5739 17.1537L26.9749 16.5423L27.0286 17.2361C27.0977 18.13 27.182 18.3702 27.5319 18.6697C27.791 18.8914 28.0798 18.9849 30.551 19.6456C33.9942 20.5663 33.835 20.5321 34.2076 20.4318C34.6464 20.3136 34.8375 20.1022 35.8007 18.6692L36.6605 17.3901V16.6634C36.6605 13.8636 35.4766 10.4318 33.7625 8.26346C33.5111 7.94528 33.4274 7.88784 33.2159 7.88784C32.9229 7.88784 32.6771 8.07094 32.6148 8.33553C32.5833 8.46912 32.6286 8.60843 32.7719 8.81795C33.4931 9.87252 33.7176 10.2327 34.0213 10.8232C34.8375 12.4092 35.3335 14.1305 35.5027 15.964C35.5416 16.3857 35.533 16.4287 35.4167 16.394C35.3456 16.3728 33.701 15.9324 31.7621 15.4153C29.8231 14.8982 28.2075 14.4483 28.1719 14.4157C28.1352 14.3821 28.1591 13.9433 28.2269 13.4043C28.4408 11.7045 28.515 9.71881 28.4251 8.09654C28.3487 6.71771 28.2512 5.66996 28.1557 5.20015L28.1147 4.9988L28.6248 5.2792C29.3063 5.65378 29.8929 6.04751 30.6037 6.60757C31.2925 7.15025 31.569 7.20881 31.8367 6.86852C32.1599 6.45764 31.9492 6.1555 30.7107 5.25344C29.6826 4.50473 28.0487 3.64579 26.9255 3.26357C26.816 3.22631 26.8352 3.12693 27.0927 2.39565C27.2822 1.85771 27.3676 1.50621 27.3378 1.38732C27.2436 1.01192 26.6994 0.852866 26.4302 1.12206ZM23.158 3.93569C20.8536 6.70279 19.7423 8.53443 18.4697 11.6625C18.4227 11.7779 18.3549 11.8257 18.2707 11.8025C18.2004 11.7832 16.5398 11.3393 14.5804 10.8161C12.621 10.293 11.0053 9.85553 10.9899 9.8441C10.8946 9.77344 11.9876 8.43817 12.8356 7.58926C14.0388 6.38476 14.8921 5.76184 16.2874 5.06931C18.3325 4.05422 19.8915 3.68528 22.2136 3.66672L23.3897 3.65737L23.158 3.93569ZM25.8896 4.14989C26.9515 4.45745 26.8822 4.38315 27.0233 5.36492C27.2478 6.92722 27.3316 8.49153 27.2873 10.2905C27.2527 11.6896 27.0632 14.0128 26.9758 14.1073C26.9592 14.1253 19.9088 12.2576 19.6155 12.1575C19.484 12.1126 19.7506 11.4507 20.5283 9.89174C21.5168 7.91033 22.6285 6.26356 24.0855 4.62266C24.8432 3.76944 24.703 3.80618 25.8896 4.14989ZM12.8097 11.5201C13.8652 11.8033 15.407 12.2171 16.2359 12.4395C17.0647 12.6619 17.7603 12.8614 17.7817 12.8828C17.8488 12.9498 16.6153 14.7292 16.5232 14.6982C16.4752 14.682 15.1915 14.3375 13.6707 13.9327C11.7194 13.4134 10.8961 13.1637 10.8734 13.0843C10.7938 12.8056 10.7431 11.005 10.8148 11.005C10.8564 11.005 11.7542 11.2368 12.8097 11.5201ZM22.9613 14.2411C24.883 14.7556 26.4664 15.1868 26.4798 15.1994C26.5224 15.2395 25.3052 17.0167 25.2352 17.0167C25.1345 17.0167 19.6758 15.5481 19.5981 15.5002C19.5612 15.4773 19.5083 15.0327 19.4807 14.5121C19.453 13.9915 19.4141 13.5072 19.3939 13.4357C19.3739 13.3642 19.3821 13.3058 19.4123 13.3058C19.4424 13.3058 21.0394 13.7267 22.9613 14.2411ZM31.6507 16.5694C33.4876 17.0598 35.0334 17.4773 35.0857 17.4972C35.2123 17.5454 34.0291 19.3175 33.8704 19.3175C33.6921 19.3175 28.3964 17.8919 28.2992 17.8178C28.2496 17.7799 28.1934 17.4172 28.1659 16.9577C28.1398 16.5207 28.0998 16.0346 28.077 15.8774C28.0402 15.624 28.0511 15.5965 28.1732 15.6346C28.2489 15.6582 29.8138 16.0789 31.6507 16.5694ZM28.4552 37.0558C28.5803 37.4043 28.4804 37.6817 28.1857 37.8037C27.7447 37.9864 27.6555 37.8664 26.7449 35.8664L25.9179 34.0499L26.252 33.9175C26.4357 33.8447 26.6542 33.7373 26.7374 33.679C26.8837 33.5766 26.9142 33.6283 27.6253 35.1845C28.0304 36.0708 28.4038 36.9129 28.4552 37.0558ZM7.12143 34.1084C7.12143 34.1202 6.75761 34.9301 6.31297 35.9082C5.46643 37.7704 5.3623 37.9195 4.96909 37.8327C4.75645 37.7857 4.52452 37.5419 4.52222 37.363C4.52132 37.2961 4.84284 36.5317 5.23665 35.6642L5.95271 34.0871H6.53703C6.85847 34.0871 7.12143 34.0967 7.12143 34.1084ZM16.547 35.9434C16.2739 36.9644 16.0341 37.8164 16.0138 37.8366C15.9936 37.8568 13.8889 37.8647 11.3367 37.8542L6.69638 37.8351L7.54893 35.9611L8.40148 34.0871H12.7224H17.0434L16.547 35.9434ZM25.541 35.9796L26.4049 37.8722H21.805C17.4582 37.8722 17.2074 37.8651 17.2458 37.7423C17.268 37.6709 17.4873 36.861 17.7331 35.9425C17.9787 35.0241 18.1955 34.2309 18.2147 34.1798C18.2418 34.1075 18.9604 34.0871 21.4634 34.0871H24.6771L25.541 35.9796Z" fill="black"/>
</svg>
