<svg width="33" height="35" viewBox="0 0 33 35" fill="none" xmlns="http://www.w3.org/2000/svg">
<path fill-rule="evenodd" clip-rule="evenodd" d="M11.6916 1.02855C9.52595 1.33659 7.76071 2.89992 7.12798 5.07018C6.97198 5.60533 6.94279 5.8387 6.93917 6.5819C6.93459 7.51242 7.01682 7.97198 7.33128 8.7727C7.7052 9.72494 7.81704 9.85431 11.9848 14.1582C15.7847 18.0823 16.0331 18.3244 16.2585 18.3244C16.4838 18.3244 16.7322 18.0823 20.5322 14.1582C24.6999 9.85431 24.8117 9.72494 25.1856 8.7727C25.5001 7.97198 25.5823 7.51242 25.5778 6.5819C25.5741 5.83989 25.5448 5.60442 25.3895 5.07018C24.8274 3.13588 23.3682 1.67437 21.488 1.16256C20.7053 0.949447 19.5715 0.948393 18.7914 1.15996C17.9611 1.38517 17.3007 1.74032 16.5052 2.38938L16.2576 2.59146L16.0359 2.40421C15.6084 2.04337 14.9215 1.60427 14.4976 1.42089C13.671 1.06335 12.5495 0.906557 11.6916 1.02855ZM13.4833 2.29108C14.2113 2.48261 14.739 2.79072 15.4602 3.44547C15.9022 3.84667 16.1268 4.00375 16.2585 4.00375C16.3905 4.00375 16.6184 3.84337 17.0754 3.42846C18.0596 2.53506 18.968 2.15545 20.1269 2.15327C22.5499 2.1487 24.4616 4.13123 24.4616 6.6487C24.4616 7.39879 24.3373 7.91917 23.9737 8.69127C23.6943 9.28457 23.6653 9.31677 19.9754 13.121L16.2585 16.953L12.5416 13.121C8.85166 9.31677 8.8226 9.28457 8.54322 8.69127C8.17606 7.91158 8.05534 7.39837 8.05534 6.61706C8.05534 4.13833 9.95634 2.17197 12.3681 2.15608C12.7407 2.15362 13.1483 2.20298 13.4833 2.29108ZM14.7857 4.99671C14.624 5.16292 14.6178 5.2042 14.6178 6.1217V7.07409H13.6919C12.7999 7.07409 12.7598 7.08042 12.5982 7.2467C12.4317 7.41785 12.4303 7.43015 12.4303 8.76159C12.4303 10.093 12.4317 10.1053 12.5982 10.2765C12.7598 10.4428 12.7999 10.4491 13.6919 10.4491H14.6178V11.4015C14.6178 12.319 14.624 12.3603 14.7857 12.5265C14.952 12.6977 14.964 12.6991 16.2585 12.6991C17.5529 12.6991 17.5649 12.6977 17.7313 12.5265C17.8929 12.3603 17.8991 12.319 17.8991 11.4015V10.4491H18.825C19.717 10.4491 19.7572 10.4428 19.9188 10.2765C20.0852 10.1053 20.0866 10.093 20.0866 8.76159C20.0866 7.43015 20.0852 7.41785 19.9188 7.2467C19.7572 7.08042 19.717 7.07409 18.825 7.07409H17.8991V6.1217C17.8991 5.2042 17.8929 5.16292 17.7313 4.99671C17.5649 4.82549 17.5529 4.82409 16.2585 4.82409C14.964 4.82409 14.952 4.82549 14.7857 4.99671ZM16.8053 6.90147C16.8053 7.81898 16.8115 7.86025 16.9732 8.02647C17.1348 8.19276 17.1749 8.19909 18.0669 8.19909H18.9928V8.76159V9.32409H18.0669C17.1749 9.32409 17.1348 9.33042 16.9732 9.4967C16.8115 9.66292 16.8053 9.7042 16.8053 10.6217V11.5741H16.2585H15.7116V10.6217C15.7116 9.7042 15.7054 9.66292 15.5438 9.4967C15.3822 9.33042 15.342 9.32409 14.45 9.32409H13.5241V8.76159V8.19909H14.45C15.342 8.19909 15.3822 8.19276 15.5438 8.02647C15.7054 7.86025 15.7116 7.81898 15.7116 6.90147V5.94909H16.2585H16.8053V6.90147ZM2.46867 7.68257C2.07677 7.82531 1.52333 8.35272 1.30902 8.78781C1.1963 9.01661 1.11987 9.31052 1.09704 9.60309C1.06293 10.0405 1.04741 10.0735 0.744715 10.3534C0.280759 10.7825 0.0420486 11.2768 0.00472443 11.8858C-0.0240549 12.3549 0.0438257 12.6497 1.21961 17.1639C1.90457 19.7936 2.54065 22.1034 2.63307 22.2967C2.85524 22.7614 2.91772 22.8252 5.20325 24.9212C6.72828 26.3198 7.20447 26.7966 7.3215 27.0423C7.44475 27.301 7.47709 27.5109 7.49766 28.1854C7.51995 28.9169 7.5099 29.0116 7.41003 29.0116C7.34796 29.0116 7.2217 29.0893 7.12941 29.1842L6.96159 29.3567V31.8241V34.2914L7.12941 34.464L7.29716 34.6366H11.3366H15.376L15.5438 34.464L15.7116 34.2914V31.8241V29.3567L15.5438 29.1842C15.4515 29.0893 15.3302 29.0116 15.2742 29.0116C15.1859 29.0116 15.1696 28.5951 15.1515 25.8651L15.1305 22.7186L14.9375 22.1561C14.5934 21.1532 14.0323 20.3229 13.3132 19.7527C13.1093 19.5909 11.8044 18.7723 10.4134 17.9335C9.02249 17.0947 7.86257 16.3882 7.83577 16.3634C7.80904 16.3387 7.21561 14.6261 6.51712 12.5576C5.77132 10.349 5.17283 8.68642 5.06715 8.52934C4.82693 8.17237 4.43468 7.86166 4.0194 7.69938C3.60788 7.5385 2.88566 7.5307 2.46867 7.68257ZM28.4606 7.70908C28.0534 7.87045 27.7 8.15697 27.4524 8.5266C27.3463 8.68509 26.7462 10.3511 26.0004 12.558C25.3012 14.6266 24.7074 16.3409 24.6808 16.3674C24.6542 16.3939 23.4943 17.1006 22.1032 17.9376C20.7121 18.7748 19.4072 19.5918 19.2034 19.7532C18.485 20.3224 17.9236 21.1531 17.5794 22.1561L17.3864 22.7186L17.3655 25.8651C17.3473 28.5951 17.331 29.0116 17.2427 29.0116C17.1867 29.0116 17.0654 29.0893 16.9732 29.1842L16.8053 29.3567V31.8241V34.2914L16.9732 34.464L17.1409 34.6366H21.1803H25.2198L25.3875 34.464L25.5553 34.2914V31.8241V29.3567L25.3875 29.1842C25.2952 29.0893 25.169 29.0116 25.1069 29.0116C25.007 29.0116 24.997 28.9169 25.0193 28.1854C25.0567 26.9566 24.9949 27.0449 27.2802 24.955C29.5277 22.8998 29.6605 22.7644 29.8845 22.2967C29.9771 22.1034 30.6021 19.8411 31.2733 17.2694C32.4081 12.922 32.4937 12.5516 32.4922 11.996C32.4908 11.4868 32.4635 11.3451 32.3079 11.0391C32.2075 10.8416 31.9747 10.5407 31.7905 10.3703C31.4672 10.0714 31.4543 10.0447 31.4199 9.60309C31.3737 9.01218 31.134 8.5247 30.6857 8.11007C30.4954 7.93415 30.196 7.73981 30.0203 7.67821C29.5876 7.52655 28.8861 7.54047 28.4606 7.70908ZM3.85295 8.91121C3.98474 9.00297 4.15099 9.20456 4.2225 9.35924C4.294 9.51393 4.79925 10.9694 5.34523 12.5936C5.89129 14.2178 6.3832 15.6768 6.43837 15.8358L6.53865 16.1249L6.18127 16.2272L5.82388 16.3295L5.01143 13.736C4.13083 10.9248 4.0004 10.6339 3.44259 10.2392C3.0865 9.9872 2.6542 9.81627 2.3729 9.81627C2.15675 9.81627 2.13179 9.73563 2.24937 9.41655C2.49492 8.74992 3.27025 8.50558 3.85295 8.91121ZM29.8484 8.88126C30.0917 9.06801 30.2535 9.31755 30.3065 9.58776C30.3492 9.80559 30.3417 9.81627 30.1434 9.81627C29.4684 9.81627 28.5651 10.5132 28.3054 11.2345C28.2311 11.4406 27.838 12.6713 27.4318 13.9694L26.6932 16.3296L26.3344 16.2269L25.9755 16.1241L26.138 15.6597C26.2272 15.4042 26.7449 13.8778 27.2883 12.2677C27.8317 10.6576 28.3275 9.25975 28.3902 9.16131C28.6709 8.72074 29.4457 8.57195 29.8484 8.88126ZM2.75175 11.158C2.87937 11.248 3.02935 11.4021 3.08507 11.5005C3.14078 11.599 3.57472 12.9166 4.04948 14.4285C4.9117 17.1744 4.91252 17.1777 4.8067 17.4381C4.4392 18.3428 4.61187 19.3374 5.24563 19.9666C5.56617 20.2848 8.88857 22.2616 9.10288 22.2616C9.19332 22.2616 9.34842 22.196 9.44748 22.1158C9.68598 21.9229 9.69931 21.5096 9.4738 21.2982C9.38917 21.2189 8.61247 20.7366 7.74772 20.2264C6.88298 19.7162 6.09254 19.2074 5.99116 19.0958C5.65627 18.727 5.65435 18.0904 5.98699 17.6838C6.32803 17.2669 6.83177 17.1625 7.30475 17.4107C7.83673 17.6899 12.2662 20.3841 12.5755 20.6166C13.1359 21.038 13.6591 21.822 13.9078 22.6131C14.0146 22.9531 14.0324 23.3633 14.0548 26.0057L14.0801 29.0116H11.3477H8.61534L8.59011 28.0448C8.56298 27.007 8.48703 26.7219 8.07366 26.1061C7.9744 25.9584 6.98962 25.0135 5.8852 24.0064C4.78079 22.9994 3.80496 22.0603 3.71677 21.9197C3.6087 21.7473 3.15288 20.1154 2.31951 16.9171C1.63927 14.3063 1.08268 12.1014 1.08268 12.0173C1.08268 11.6372 1.3646 11.2116 1.7321 11.0367C2.01018 10.9044 2.46935 10.959 2.75175 11.158ZM30.7731 11.0372C31.0759 11.1673 31.3437 11.512 31.3977 11.8413C31.4342 12.0628 31.2119 13.0003 30.2008 16.8887C29.5179 19.515 28.8979 21.7675 28.823 21.894C28.7481 22.0206 27.7383 22.9925 26.579 24.0539C24.5042 25.9533 24.4671 25.9921 24.2101 26.5269C23.9512 27.0653 23.9487 27.0787 23.9252 28.0409L23.9016 29.0116H21.1692H18.4368L18.4622 26.0057C18.4904 22.6694 18.4898 22.6745 18.9721 21.7792C19.4073 20.9714 19.7943 20.6573 21.9699 19.3464C25.2881 17.3471 25.4265 17.2694 25.6737 17.2694C26.5957 17.2694 27.1333 18.4227 26.5258 19.0975C26.4244 19.2101 25.6339 19.7186 24.7692 20.2274C23.9045 20.7362 23.1278 21.2177 23.0431 21.2975C22.8177 21.5099 22.8309 21.9229 23.0694 22.1158C23.1685 22.196 23.3233 22.2616 23.4135 22.2616C23.6286 22.2616 26.8745 20.3381 27.238 19.9953C27.8521 19.416 28.0671 18.3938 27.7518 17.5523L27.6075 17.1672L28.4685 14.4234C28.9421 12.9143 29.3885 11.5796 29.4607 11.4575C29.6082 11.2079 30.0723 10.9414 30.3598 10.9413C30.4644 10.9413 30.6504 10.9844 30.7731 11.0372ZM14.6178 31.8241V33.5116H11.3366H8.05534V31.8241V30.1366H11.3366H14.6178V31.8241ZM24.4616 31.8241V33.5116H21.1803H17.8991V31.8241V30.1366H21.1803H24.4616V31.8241Z" fill="black"/>
</svg>
