<svg width="38" height="39" viewBox="0 0 38 39" fill="none" xmlns="http://www.w3.org/2000/svg">
<path fill-rule="evenodd" clip-rule="evenodd" d="M16.7728 1.06231C12.4198 1.61813 8.61798 3.47033 5.56589 6.5225C1.94839 10.1399 0 14.8428 0 19.9566C0 25.057 1.95989 29.7916 5.5624 33.3942C10.0542 37.886 16.4006 39.8218 22.668 38.6119C28.2941 37.5258 33.2116 33.8405 35.8746 28.7144C37.4019 25.7745 38.0825 22.7507 37.9773 19.3731C37.9267 17.7491 37.8027 16.827 37.4368 15.355C36.8498 12.9933 35.7603 10.6632 34.3222 8.69392L33.9834 8.23005H34.6986C35.3901 8.23005 35.421 8.22285 35.6307 8.01311C35.8008 7.84293 35.8477 7.72967 35.8477 7.48787C35.8477 7.24606 35.8008 7.1328 35.6307 6.96262L35.4138 6.74568L33.7196 6.74731C31.4169 6.74954 31.543 6.62485 31.543 8.90025C31.543 10.2323 31.5617 10.5026 31.6665 10.68C31.9024 11.0793 32.434 11.1704 32.782 10.8714C32.9691 10.7107 32.994 10.6334 33.0276 10.1107L33.065 9.52888L33.6091 10.3453C34.8879 12.2638 35.8575 14.7171 36.2489 17.025C37.2972 23.2055 34.8898 29.5994 30.0331 33.5333C28.1266 35.0776 25.6497 36.3212 23.2883 36.9197C21.8055 37.2957 20.7272 37.4219 19 37.4219C17.2238 37.4219 16.2 37.2966 14.6032 36.884C9.71902 35.6217 5.59186 32.2621 3.33628 27.7125C2.49531 26.0162 1.94683 24.2644 1.66317 22.3687C1.47948 21.1416 1.47948 18.7716 1.66317 17.5445C1.94743 15.645 2.49457 13.8993 3.34207 12.1878C5.06476 8.70899 7.81917 5.97046 11.3163 4.2595C14.1559 2.8702 17.2327 2.26947 20.2775 2.50987C21.4922 2.60583 21.7076 2.5619 21.8801 2.18331C22.0943 1.71298 21.8847 1.25016 21.3902 1.10201C20.9579 0.972503 17.6958 0.944448 16.7728 1.06231ZM23.7314 1.77896C23.5586 1.87968 23.3789 2.23786 23.3789 2.48181C23.3789 2.60791 23.4729 2.77245 23.6408 2.94034C23.8791 3.17873 23.9306 3.1984 24.2158 3.16017C24.6282 3.10488 24.8633 2.84007 24.8633 2.43112C24.8633 2.01772 24.5487 1.69784 24.1454 1.70103C23.9891 1.7023 23.8028 1.73733 23.7314 1.77896ZM17.1445 5.90174C16.2885 6.01782 15.2473 6.26452 14.3043 6.57475C13.4989 6.83979 11.5917 7.79558 11.3424 8.05913C11.0312 8.38821 11.0341 8.81074 11.3498 9.12639C11.6734 9.45006 11.9051 9.41466 12.826 8.90084C14.1438 8.16556 15.5103 7.6916 17.1445 7.40289C17.9789 7.25549 20.1955 7.27901 21.1152 7.44504C24.8791 8.12429 27.9902 10.3025 29.9837 13.6543C31.6484 16.4532 32.0911 20.2644 31.1336 23.5556C30.0774 27.1864 27.2634 30.2916 23.7675 31.6841C22.1734 32.319 20.7044 32.5931 18.9258 32.5874C15.5306 32.5765 12.4529 31.2964 10.0572 28.8987C9.60784 28.4489 9.0152 27.7643 8.74022 27.3772C7.75126 25.9853 6.95029 24.1299 6.59404 22.4058C6.40196 21.4762 6.32886 19.3507 6.45436 18.3478C6.65178 16.7713 7.20946 15.0785 7.98208 13.7111C8.20459 13.3172 8.38672 12.9096 8.38672 12.8054C8.38672 12.522 8.25075 12.2772 8.01637 12.1388C7.46514 11.8132 7.10607 12.1013 6.43855 13.405C5.86336 14.5283 5.50198 15.4763 5.24252 16.5425C4.05784 21.4108 5.46198 26.4536 8.98247 29.9741C11.1244 32.116 13.8739 33.5019 16.959 33.9947C17.7305 34.1179 20.2695 34.1179 21.041 33.9947C24.1313 33.5011 26.8721 32.1196 29.0175 29.9741C31.163 27.8287 32.5445 25.0879 33.0381 21.9976C33.1613 21.2261 33.1613 18.6871 33.0381 17.9156C32.5456 14.8322 31.1744 12.107 29.0297 9.94881C25.9433 6.84298 21.4608 5.31667 17.1445 5.90174ZM18.5032 8.85445C18.3079 9.02234 18.2933 9.0757 18.2689 9.71153C18.2305 10.7088 18.4227 11.0504 19.0222 11.0504C19.2394 11.0504 19.3605 10.9982 19.5252 10.8334C19.7365 10.6221 19.7422 10.5968 19.7422 9.86286C19.7422 9.12892 19.7365 9.10361 19.5252 8.89231C19.2405 8.6076 18.8087 8.59165 18.5032 8.85445ZM9.12059 9.82167C8.70645 10.0554 8.65517 10.752 9.03034 11.0472C9.72407 11.5928 10.6497 10.6418 10.075 9.97375C9.86894 9.73417 9.40641 9.66047 9.12059 9.82167ZM25.4941 12.4677C25.4125 12.5141 24.1883 13.7053 22.7738 15.1149L20.2019 17.6777L19.8793 17.547C19.4472 17.3721 18.5535 17.3717 18.1223 17.5464L17.8012 17.6765L16.4478 16.3302C15.1172 15.0066 15.089 14.984 14.7778 14.984C14.3312 14.984 14.0273 15.2878 14.0273 15.7345C14.0273 16.0457 14.0501 16.0739 15.3721 17.403L16.717 18.7549L16.58 19.1133C16.4914 19.3454 16.4448 19.6556 16.4478 19.9933C16.4635 21.7911 18.3868 23.0416 20.0025 22.3045C20.5846 22.039 21.0892 21.5363 21.3455 20.9667C21.5945 20.4132 21.6221 19.6015 21.4097 19.0773L21.2789 18.7547L23.8426 16.1828C25.2526 14.7683 26.4463 13.5322 26.4951 13.4361C26.6148 13.2006 26.5329 12.8178 26.32 12.6179C26.114 12.4243 25.7022 12.3494 25.4941 12.4677ZM19.5149 19.0531C19.654 19.1277 19.8289 19.3026 19.9035 19.4417C20.1761 19.9499 19.9977 20.6011 19.5149 20.8601C18.5849 21.3588 17.5978 20.3717 18.0965 19.4417C18.259 19.1387 18.6403 18.9175 19 18.9175C19.1441 18.9175 19.3758 18.9786 19.5149 19.0531ZM7.93569 19.4314C7.65099 19.7161 7.63503 20.1479 7.89784 20.4534C8.06572 20.6487 8.11909 20.6633 8.75492 20.6877C9.7522 20.7261 10.0938 20.5339 10.0938 19.9344C10.0938 19.7172 10.0416 19.5961 9.87681 19.4314C9.66551 19.2201 9.6402 19.2144 8.90625 19.2144C8.1723 19.2144 8.14699 19.2201 7.93569 19.4314ZM28.2606 19.3266C27.8365 19.5642 27.7694 20.1281 28.1232 20.4819C28.3345 20.6932 28.3598 20.6988 29.0938 20.6988C29.8277 20.6988 29.853 20.6932 30.0643 20.4819C30.3489 20.1972 30.365 19.7654 30.1022 19.4598C29.9313 19.2609 29.8903 19.2506 29.1931 19.2324C28.6477 19.2181 28.4117 19.2419 28.2606 19.3266ZM18.4748 29.0798C18.2635 29.2911 18.2578 29.3164 18.2578 30.0503C18.2578 30.7843 18.2635 30.8096 18.4748 31.0209C18.7595 31.3056 19.1913 31.3216 19.4968 31.0588C19.6921 30.8909 19.7067 30.8375 19.7311 30.2017C19.7695 29.2044 19.5773 28.8629 18.9778 28.8629C18.7606 28.8629 18.6395 28.915 18.4748 29.0798Z" fill="black"/>
</svg>
