<svg width="35" height="34" viewBox="0 0 35 34" fill="none" xmlns="http://www.w3.org/2000/svg">
<path fill-rule="evenodd" clip-rule="evenodd" d="M7.74177 1.09236C6.82664 1.34584 5.92614 2.09298 5.50512 2.94819C5.0871 3.79735 5.11772 3.05696 5.02599 14.554C4.97984 20.3355 4.9376 25.0737 4.93199 25.0833C4.92646 25.093 3.88999 25.1009 2.62876 25.1009H0.335576L0.167822 25.2735L0 25.4461L0.00116211 27.2599C0.00259766 29.3962 0.0565332 29.7547 0.522539 30.7257C0.788047 31.2789 0.944385 31.4977 1.43315 32.0005C1.92814 32.5096 2.12741 32.6592 2.66937 32.9285C3.83462 33.5075 3.08526 33.4748 14.6631 33.4526L24.917 33.433L25.4192 33.2415C26.7101 32.7493 27.6164 31.9182 28.2008 30.6908C28.737 29.5644 28.7109 30.1207 28.7109 19.7953V10.6165H31.6557H34.6004L34.8002 10.411L35 10.2055V7.28556C35 5.44021 34.9724 4.22851 34.925 3.99303C34.6547 2.64999 33.5272 1.44132 32.2216 1.0951C31.8458 0.995471 30.552 0.984221 19.9511 0.988369C9.96468 0.992236 8.04412 1.00862 7.74177 1.09236ZM28.3841 2.44271C28.2732 2.5877 28.0874 2.89623 27.9711 3.12826C27.5214 4.02531 27.549 3.14781 27.5477 16.6255C27.5464 29.9212 27.5617 29.3729 27.1689 30.1726C26.518 31.4979 25.3261 32.2728 23.9384 32.2728C22.3964 32.2728 21.0874 31.3326 20.4873 29.7939C20.3567 29.4592 20.34 29.2411 20.306 27.4326L20.2686 25.4401L20.0767 25.2705L19.8849 25.1009H13.0186H6.15234L6.15651 21.3568C6.15884 19.2975 6.18604 14.591 6.21701 10.8978C6.27266 4.26367 6.27505 4.17817 6.42052 3.78491C6.67358 3.10084 7.12373 2.62454 7.77943 2.34716L8.16895 2.18235L18.3773 2.18073L28.5857 2.17904L28.3841 2.44271ZM32.2943 2.37845C32.7497 2.58805 33.1613 2.94742 33.4188 3.35994C33.8196 4.0026 33.8363 4.14399 33.8371 6.90756L33.8379 9.42123H31.2744H28.7109L28.7118 6.97787C28.7127 3.97623 28.7556 3.7461 29.4532 2.99952C29.7633 2.66764 30.0625 2.47105 30.5529 2.27692C30.9236 2.13024 31.8756 2.18572 32.2943 2.37845ZM16.2695 4.95189C15.7897 5.13533 11.807 7.19099 11.6817 7.3198C11.5603 7.44475 11.5527 7.59528 11.5527 9.89865C11.5527 12.6451 11.5705 12.7889 12.0284 13.7455C12.5022 14.735 12.7697 14.9809 15.236 16.6952C16.2289 17.3854 16.4551 17.5147 16.6127 17.4823C16.9232 17.4184 19.8059 15.3499 20.3127 14.8274C20.8137 14.3108 21.2453 13.5136 21.43 12.7639C21.5692 12.1986 21.5792 7.5557 21.4416 7.36958C21.3475 7.24232 16.9631 4.9701 16.6797 4.90168C16.5857 4.87897 16.4011 4.90161 16.2695 4.95189ZM18.4611 7.10296L20.3782 8.08944L20.3576 10.3198L20.3369 12.5501L20.092 13.0775C19.7438 13.8272 19.3553 14.206 17.8576 15.256L16.5404 16.1794L15.1733 15.215C14.4213 14.6845 13.6812 14.1111 13.5285 13.9408C13.3757 13.7703 13.1379 13.3878 12.9999 13.0906L12.749 12.5501L12.7276 10.3202L12.7062 8.09021L14.6075 7.10717C15.6532 6.56647 16.5167 6.12245 16.5264 6.12034C16.536 6.11823 17.4066 6.56042 18.4611 7.10296ZM17.0112 10.4536L15.9994 11.4859L15.5633 11.0551C15.0905 10.5881 14.8669 10.4857 14.6182 10.622C14.3821 10.7514 14.2917 10.9036 14.2893 11.1755C14.2874 11.3914 14.3685 11.5018 15.0254 12.1775C16.0558 13.2373 15.8967 13.2731 17.5118 11.6179C18.6403 10.4615 18.7988 10.2717 18.7988 10.0768C18.7988 9.75817 18.7396 9.64068 18.5205 9.5241C18.1467 9.32532 18.0716 9.37152 17.0112 10.4536ZM9.60142 19.2267C9.37111 19.4635 9.3748 19.8165 9.60996 20.0438L9.7864 20.2142L16.6339 20.2351C21.5072 20.25 23.5569 20.2335 23.7431 20.1779C23.9427 20.1184 24.0276 20.0434 24.1013 19.8621C24.2083 19.5986 24.1784 19.4481 23.9721 19.2122L23.8336 19.054H16.8014H9.76917L9.60142 19.2267ZM9.74121 21.8071C9.37973 22.0105 9.31834 22.4665 9.61447 22.7488L9.79535 22.9212H16.783C23.6406 22.9212 23.7738 22.9186 23.9425 22.7822C24.037 22.7057 24.1287 22.566 24.1462 22.4717C24.1927 22.2212 24.0272 21.876 23.8219 21.7957C23.5614 21.6939 9.92291 21.7049 9.74121 21.8071ZM19.1418 27.7201C19.1432 29.306 19.2117 29.7922 19.5385 30.5335C19.7769 31.0743 20.0398 31.4807 20.4324 31.9153C20.5867 32.0861 20.7129 32.2364 20.7129 32.2493C20.7129 32.2623 17.0126 32.2728 12.4899 32.2728C3.45475 32.2728 3.89231 32.2927 3.0759 31.8451C2.3396 31.4414 1.66018 30.624 1.35673 29.7767C1.22233 29.4013 1.20265 29.1865 1.17811 27.8255L1.15056 26.2962H10.1456H19.1406L19.1418 27.7201Z" fill="black"/>
</svg>
