<svg width="36" height="37" viewBox="0 0 36 37" fill="none" xmlns="http://www.w3.org/2000/svg">
<path d="M21.14 23.0012V23.8652H16.988V27.1772C16.988 27.5532 17.036 27.8092 17.132 27.9452C17.236 28.0812 17.436 28.1492 17.732 28.1492C17.972 28.1492 18.212 28.0972 18.452 27.9932C18.7 27.8892 18.92 27.7492 19.112 27.5732C19.312 27.3972 19.472 27.1972 19.592 26.9732C19.712 26.7412 19.772 26.5052 19.772 26.2652C19.772 26.0732 19.716 25.9252 19.604 25.8212C19.5 25.7172 19.328 25.6652 19.088 25.6652C18.872 25.6652 18.672 25.6892 18.488 25.7372L18.368 24.9212C18.504 24.8812 18.648 24.8532 18.8 24.8372C18.96 24.8132 19.12 24.8012 19.28 24.8012C19.704 24.8012 20.048 24.9092 20.312 25.1252C20.584 25.3332 20.72 25.6732 20.72 26.1452C20.72 26.5132 20.632 26.8692 20.456 27.2132C20.288 27.5492 20.06 27.8532 19.772 28.1252C19.484 28.3892 19.16 28.5972 18.8 28.7492C18.44 28.9012 18.072 28.9772 17.696 28.9772C17.4 28.9772 17.156 28.9452 16.964 28.8812C16.772 28.8092 16.612 28.7132 16.484 28.5932C16.404 28.5132 16.332 28.4252 16.268 28.3292C16.204 28.2252 16.152 28.0892 16.112 27.9212C16.08 27.7452 16.064 27.5132 16.064 27.2252V23.8652H14.9V23.0012H21.14ZM15.5 19.9892C15.732 19.9892 15.932 20.0212 16.1 20.0852C16.276 20.1492 16.424 20.2452 16.544 20.3732C16.688 20.5252 16.796 20.7332 16.868 20.9972C16.948 21.2532 16.988 21.6172 16.988 22.0892V23.0972H16.064V22.1372C16.064 21.8572 16.044 21.6252 16.004 21.4412C15.972 21.2492 15.896 21.1052 15.776 21.0092C15.656 20.9052 15.476 20.8532 15.236 20.8532C15.084 20.8532 14.932 20.8772 14.78 20.9252C14.636 20.9652 14.512 21.0052 14.408 21.0452L14.084 20.3012C14.324 20.1972 14.556 20.1212 14.78 20.0732C15.012 20.0172 15.252 19.9892 15.5 19.9892Z" fill="black"/>
<path fill-rule="evenodd" clip-rule="evenodd" d="M16.6146 1.07792C15.8785 1.28696 15.1576 1.7866 14.7177 2.39269L14.4692 2.73498H13.9495C12.5617 2.73498 11.7545 3.17991 11.3034 4.19333C10.9511 4.98469 10.9675 5.1057 11.8702 8.3919C12.5842 10.9909 12.6642 11.3361 12.5659 11.3926C12.0266 11.7031 11.6792 12.3203 11.6831 12.9609C11.686 13.4452 11.7663 13.7068 12.0149 14.042C12.1101 14.1704 12.1772 14.2825 12.164 14.2912C12.1508 14.2998 11.8786 14.5319 11.559 14.8069C10.3008 15.8897 8.96194 17.4765 8.08387 18.9258C7.38961 20.0716 6.69686 21.6745 6.29907 23.0553L6.10664 23.7233L3.68877 23.7584C1.35963 23.7923 1.26051 23.7993 0.988711 23.9488C0.103867 24.4357 -0.242168 25.5084 0.20415 26.3811L0.402051 26.768L0.20415 27.1716C-0.0669631 27.7244 -0.0679885 28.2278 0.200732 28.7758L0.395283 29.1725L0.200732 29.5691C-0.139356 30.2627 -0.0435842 30.983 0.466513 31.5664L0.764219 31.907L0.653066 32.3001C0.535146 32.7175 0.561465 33.1326 0.727099 33.4656C0.810361 33.6332 0.800859 33.6584 0.588193 33.8329C0.462617 33.936 0.276201 34.1962 0.174004 34.411C0.0108298 34.754 -0.00769554 34.8609 0.0219041 35.2866C0.0754295 36.0565 0.48415 36.632 1.15113 36.8768C1.35635 36.9521 2.41236 36.9715 6.43203 36.9734L11.4564 36.9758L11.8028 36.8099C11.9932 36.7187 12.2671 36.5045 12.4114 36.334L12.6736 36.0239L13.4041 36.283C14.1947 36.5635 15.1519 36.7862 16.0689 36.9033C16.4471 36.9515 19.6866 36.9768 25.4 36.976L34.1518 36.9748L34.4238 36.8164C34.5763 36.7275 34.7635 36.535 34.8499 36.3781L35.004 36.0983L35.0052 30.3807C35.0059 26.2901 34.9844 24.6195 34.9296 24.5096C34.8303 24.311 34.5313 23.9798 34.3568 23.8754C34.2622 23.8187 33.4028 23.7827 31.563 23.7584L28.9059 23.7233L28.7039 23.0201C28.1339 21.0358 27.2087 19.163 25.962 17.4694C25.3113 16.5855 23.5202 14.7577 22.8485 14.2921C22.8353 14.283 22.9024 14.1704 22.9976 14.042C23.2463 13.7068 23.3265 13.4452 23.3294 12.9609C23.3333 12.32 22.9859 11.7031 22.4461 11.3923C22.3473 11.3355 22.4261 10.9961 23.1421 8.39548C23.8838 5.70167 23.9468 5.42682 23.9151 5.02076C23.874 4.49384 23.6338 3.91749 23.2941 3.53077C22.8141 2.98423 22.1153 2.73498 21.063 2.73498H20.5433L20.289 2.38475C19.8374 1.76255 19.1409 1.28605 18.3774 1.07701C17.941 0.957475 17.0371 0.957967 16.6146 1.07792ZM18.4742 2.42926C19.0452 2.69286 19.5101 3.22983 19.6922 3.83614C19.8119 4.23488 19.8305 4.48983 19.8305 5.73605V7.17549L20.0303 7.38102C20.2853 7.64328 20.5896 7.65587 20.8248 7.41392L20.9926 7.24137V5.61329V3.9852L21.5018 4.01171C22.065 4.04096 22.2764 4.15219 22.5478 4.5624C22.6549 4.7244 22.7016 4.898 22.7016 5.13516C22.7016 5.42394 22.0184 8.05981 21.26 10.6979L21.1235 11.1725H17.5063H13.889L13.7525 10.6979C13.5502 9.99467 12.4525 5.99452 12.3405 5.55268C12.2241 5.09354 12.2921 4.75084 12.5659 4.41608C12.8084 4.11971 13.107 4.0006 13.6076 4.0006H14.0199V5.62095V7.24137L14.1877 7.41392C14.4229 7.65587 14.7272 7.64328 14.9822 7.38102L15.182 7.17549V5.73605C15.182 3.98394 15.2656 3.60024 15.7735 3.01911C16.4835 2.20693 17.5078 1.98319 18.4742 2.42926ZM21.9897 12.6002C22.2541 12.9164 22.1888 13.2872 21.8345 13.4813C21.7257 13.541 20.5525 13.5631 17.5073 13.5631C13.0911 13.5631 13.0176 13.558 12.9003 13.2435C12.7852 12.9351 12.9366 12.5576 13.224 12.4367C13.3046 12.4028 15.2727 12.3814 17.5976 12.389L21.8248 12.4029L21.9897 12.6002ZM21.7852 15.0277C24.1154 16.5825 26.3257 19.6217 27.3514 22.6814C27.8266 24.0989 27.9313 24.74 27.9291 26.2194C27.9276 27.3196 27.9043 27.6141 27.7779 28.1299C26.9738 31.4124 24.5438 33.9805 21.1313 35.154C18.6644 36.0024 15.7758 35.9304 13.3365 34.9598C12.9344 34.7998 12.8204 34.7199 12.7359 34.5384C12.6339 34.3194 12.6363 34.3105 12.842 34.1325C13.1808 33.8392 13.4047 33.3001 13.4047 32.7775C13.4047 32.2341 13.2951 31.9478 12.9321 31.5426L12.6541 31.2325L12.7642 30.9003C12.9074 30.468 12.8602 29.9773 12.632 29.5248L12.4542 29.1725L12.6389 28.8063C12.9028 28.2831 12.8986 27.6722 12.6272 27.1213L12.4307 26.7226L12.5719 26.5187C13.0224 25.8678 12.8997 24.8562 12.2999 24.2761C11.8032 23.7958 11.811 23.7972 9.45755 23.7584L7.32193 23.7233L7.63577 22.774C8.34083 20.6413 9.59987 18.5195 11.1677 16.8218C11.7434 16.1984 12.4991 15.5399 13.1611 15.0845L13.6352 14.7584H17.5084H21.3815L21.7852 15.0277ZM11.4692 25.1769C11.6987 25.3987 11.6878 25.8087 11.4472 26.0033C11.2689 26.1476 11.2204 26.149 6.40154 26.149C1.60832 26.149 1.53374 26.1469 1.38718 26.0064C1.30535 25.9281 1.22011 25.7891 1.19782 25.6976C1.154 25.5181 1.31479 25.1301 1.45745 25.0711C1.50523 25.0513 3.74182 25.0326 6.42766 25.0296L11.3109 25.024L11.4692 25.1769ZM31.0987 25.4938C31.3106 26.1184 31.6182 26.5977 32.093 27.0437C32.5041 27.4298 33.1559 27.7918 33.5878 27.8738L33.8441 27.9225V30.3673V32.8121L33.5287 32.8937C32.3823 33.1906 31.3249 34.2783 31.0362 35.4574L30.9569 35.7819L26.9146 35.7807L22.8725 35.7795L23.4215 35.4763C26.0144 34.0442 27.9365 31.7499 28.7396 29.1285C29.0586 28.0873 29.1563 27.3978 29.159 26.1666L29.1615 25.024H30.0504H30.9393L31.0987 25.4938ZM33.8441 25.8402V26.6565L33.6562 26.6102C33.4021 26.5476 32.8104 26.1265 32.6364 25.8843C32.4952 25.6879 32.2035 25.1338 32.2035 25.062C32.2035 25.0411 32.5727 25.024 33.0238 25.024H33.8441V25.8402ZM11.4692 27.5675C11.6779 27.7693 11.6824 28.1539 11.4787 28.377L11.3301 28.5397H6.44981C3.45628 28.5397 1.52205 28.5135 1.44665 28.472C1.23897 28.3577 1.13712 28.0135 1.2374 27.7645C1.2845 27.6476 1.37282 27.522 1.43366 27.4855C1.50031 27.4454 3.48595 27.4181 6.42766 27.4168L11.3109 27.4147L11.4692 27.5675ZM31.1439 28.603C30.2556 28.8378 29.6733 29.6564 29.7624 30.5453C29.8773 31.6902 30.9337 32.4235 32.0041 32.1013C33.2619 31.7227 33.673 30.0619 32.7451 29.1076C32.3493 28.7004 31.6314 28.4742 31.1439 28.603ZM11.4472 29.9511C11.6805 30.1397 11.6955 30.5302 11.4787 30.7676L11.3301 30.9303H6.45985C3.78126 30.9303 1.53989 30.9106 1.47905 30.8866C1.31718 30.8227 1.15065 30.4498 1.19782 30.2567C1.22011 30.1652 1.30535 30.0263 1.38718 29.9479C1.53374 29.8074 1.60832 29.8053 6.40154 29.8053C11.2204 29.8053 11.2689 29.8067 11.4472 29.9511ZM31.899 29.9779C32.2497 30.3386 32.0111 30.9303 31.5149 30.9303C31.3376 30.9303 31.2001 30.8826 31.1098 30.7897C31.0195 30.6968 30.9731 30.5553 30.9731 30.3729C30.9731 29.8626 31.5483 29.6171 31.899 29.9779ZM11.9319 32.2396C12.0644 32.2919 12.2426 32.6255 12.2426 32.8213C12.2426 32.8984 12.1683 33.0503 12.0776 33.1588L11.9126 33.3561H7.0245H2.1364L1.96003 33.1856C1.7248 32.9584 1.72111 32.6053 1.95142 32.3685L2.11917 32.1959H6.97022C9.63829 32.1959 11.871 32.2156 11.9319 32.2396ZM33.8441 34.9381V35.7819H33.0193C32.1957 35.7819 32.1944 35.7816 32.2402 35.6237C32.329 35.3177 32.6091 34.8885 32.8911 34.6264C33.1396 34.3955 33.641 34.1005 33.7929 34.0959C33.8211 34.0951 33.8441 34.474 33.8441 34.9381ZM11.4595 34.7592C11.7748 35.0834 11.6297 35.6393 11.2018 35.7472C11.1163 35.7688 8.90151 35.7775 6.28007 35.7666L1.51392 35.7467L1.36161 35.59C1.13726 35.3593 1.15414 34.9688 1.39777 34.7532L1.58617 34.5865H6.43894H11.2918L11.4595 34.7592Z" fill="black"/>
</svg>
