<svg width="35" height="30" viewBox="0 0 35 30" fill="none" xmlns="http://www.w3.org/2000/svg">
<path fill-rule="evenodd" clip-rule="evenodd" d="M6.97266 1.08135C6.1237 1.35746 5.47374 1.98753 5.19723 2.80225C5.1398 2.97142 4.98524 4.15794 4.85379 5.43896C4.72233 6.71999 4.5984 7.86805 4.57844 7.99011L4.54207 8.21209L3.25849 8.23621L1.9749 8.26032L1.45332 8.52554C0.859824 8.82739 0.483574 9.21664 0.188877 9.83364L0 10.2291V18.8775V27.5259L0.184775 27.9315C0.420752 28.4495 0.97918 29.0237 1.50391 29.288L1.91406 29.4947H14.9365H27.959L28.4171 29.2715C28.9998 28.9875 29.4483 28.5262 29.7244 27.9268L29.9414 27.4556L29.9639 25.8736L29.9864 24.2916H30.8526C31.6477 24.2916 31.7506 24.2762 32.1067 24.1045C32.7841 23.7779 33.3285 23.1676 33.5552 22.4807C33.6913 22.0686 34.9898 6.31464 34.9476 5.58845C34.8815 4.4491 34.0794 3.47359 32.9801 3.19515C32.5489 3.08596 8.287 0.977637 7.5775 0.987691C7.39519 0.990293 7.12305 1.03241 6.97266 1.08135ZM20.5132 3.51064C29.9471 4.31832 32.7335 4.57778 32.8951 4.66384C33.1769 4.81367 33.4417 5.15033 33.5266 5.46653C33.581 5.66938 33.4531 7.49933 32.948 13.7436C32.5913 18.1528 32.2675 21.8793 32.2284 22.0247C32.1358 22.3685 31.7558 22.7547 31.4181 22.8483C31.2593 22.8922 30.9126 22.9035 30.5648 22.876L29.9791 22.8297L29.9603 16.5645L29.9414 10.2994L29.7307 9.84214C29.4608 9.25644 28.973 8.75462 28.4035 8.47703L27.959 8.26032L16.9702 8.24169C8.95139 8.22812 5.98145 8.20189 5.98145 8.14473C5.98145 8.1017 6.08952 7.01846 6.22152 5.73758C6.38196 4.1815 6.49988 3.31897 6.57679 3.13813C6.79198 2.6323 7.30023 2.37446 7.96387 2.43444C8.17065 2.45314 13.8178 2.93746 20.5132 3.51064ZM27.8774 9.79953C28.0205 9.87266 28.2205 10.0441 28.3217 10.1805C28.4979 10.4179 28.5068 10.4702 28.5281 11.401L28.5504 12.3736H14.9417H1.33301L1.33342 11.6177C1.33362 11.2021 1.36603 10.7424 1.40547 10.5963C1.54021 10.0974 1.9157 9.78139 2.49512 9.67951C2.58911 9.66299 8.28003 9.65328 15.1416 9.65799C27.2305 9.66629 27.6253 9.67072 27.8774 9.79953ZM28.54 15.2916V16.733H14.9365H1.33301V15.2916V13.8502H14.9365H28.54V15.2916ZM28.5244 22.7326L28.5059 27.326L28.3143 27.5842C28.209 27.7263 28.0244 27.8978 27.9042 27.9655C27.6986 28.0811 26.9357 28.0896 15.1174 28.1068C6.60099 28.1192 2.46442 28.1016 2.28601 28.0522C1.93888 27.956 1.61649 27.669 1.46152 27.3179C1.34401 27.052 1.33595 26.7491 1.33451 22.5865L1.33301 18.1392H14.938H28.5429L28.5244 22.7326ZM18.8476 20.2832C18.4324 20.4706 18.4136 20.6056 18.4365 23.2254C18.4583 25.6956 18.4622 25.7255 18.7919 25.9511C18.9087 26.031 19.542 26.0534 22.1826 26.071C23.9685 26.0828 25.5654 26.0722 25.7314 26.0473C25.9319 26.0173 26.098 25.9353 26.227 25.8027L26.4209 25.6032V23.138V20.6727L26.2215 20.4431L26.022 20.2134L22.5472 20.1976C19.6448 20.1844 19.0352 20.1985 18.8476 20.2832ZM25.0537 23.1314V24.608H22.4561H19.8584V23.1314V21.6549H22.4561H25.0537V23.1314Z" fill="black"/>
</svg>
